<?xml version="1.0" encoding="UTF-8"?>
<svg version="1.1" xmlns="http://www.w3.org/2000/svg" width="512" height="512">
<path d="M0 0 C1.08071777 -0.00700928 2.16143555 -0.01401855 3.27490234 -0.02124023 C6.82936683 -0.0387729 10.38302812 -0.02721354 13.9375 -0.01367188 C16.4179703 -0.01636813 18.89843956 -0.02025166 21.37890625 -0.02526855 C26.57041515 -0.03115723 31.76164823 -0.02262052 36.953125 -0.00390625 C43.59763546 0.01888237 50.24149956 0.00575599 56.88598633 -0.01819611 C62.00590865 -0.0326708 67.12567848 -0.0280403 72.24560547 -0.01768494 C74.69515052 -0.0150223 77.14470956 -0.01827105 79.59423828 -0.02760315 C83.02153031 -0.03779574 86.44778495 -0.0222281 89.875 0 C90.88095215 -0.00809692 91.8869043 -0.01619385 92.92333984 -0.02453613 C100.07437546 0.06110501 105.36329237 1.56833018 110.92578125 6.15820312 C111.36277344 6.68929688 111.79976563 7.22039063 112.25 7.76757812 C112.92482422 8.54875 112.92482422 8.54875 113.61328125 9.34570312 C116.64554646 14.31897586 118.10423296 19.78014132 119.21557617 25.45263672 C122.97653458 44.42114371 132.89284647 60.43518857 148.9375 71.51757812 C153.98752307 74.75549278 159.12764667 77.73196303 164.6015625 80.19335938 C171.12917909 83.15314989 176.13078817 85.71795742 180.01953125 91.91601562 C180.90945214 94.43808929 181.22465134 96.5322117 181.49487305 99.18017578 C181.57940231 99.99201324 181.66393158 100.80385071 181.75102234 101.64028931 C181.81255997 102.25979462 181.8740976 102.87929993 181.9375 103.51757812 C183.61427322 103.50425446 183.61427322 103.50425446 185.32492065 103.49066162 C195.88794035 103.40938094 206.45089614 103.34951936 217.01415825 103.31032944 C222.44414231 103.28950376 227.87387279 103.26127799 233.30371094 103.21582031 C238.54922077 103.17218337 243.79448753 103.1484033 249.04016495 103.13806915 C251.03593901 103.13070975 253.03170059 103.11633885 255.02737045 103.0946579 C270.32422684 102.93516508 281.09427306 104.24398238 292.625 115.10742188 C299.81957639 122.75165929 301.53647744 131.55769194 301.44543457 141.7512207 C301.45167453 142.83893422 301.4579145 143.92664774 301.46434355 145.04732227 C301.48021797 148.66914262 301.46769045 152.29028478 301.45507812 155.91210938 C301.46050168 158.51801952 301.46762564 161.12392659 301.47631836 163.72982788 C301.49405402 170.05922911 301.49028585 176.38844002 301.4786678 182.71784854 C301.46961414 187.86437456 301.4684178 193.01084744 301.47276306 198.15737915 C301.47337599 198.89138311 301.47398893 199.62538707 301.47462043 200.38163358 C301.4758994 201.87300294 301.47719626 203.36437229 301.4785108 204.85574162 C301.48990208 218.82241815 301.47682574 232.78898946 301.45530933 246.75564873 C301.43743965 258.72549817 301.44054416 270.69519242 301.45898438 282.66503906 C301.48041681 296.58359549 301.48880358 310.50205983 301.47653532 324.42063046 C301.4752612 325.90634599 301.47400371 327.39206154 301.47276306 328.8777771 C301.47214596 329.60867343 301.47152886 330.33956977 301.47089306 331.09261447 C301.46744726 336.2297038 301.47325182 341.36673446 301.48268127 346.5038147 C301.49510674 353.42486882 301.48619128 360.34562574 301.46310425 367.26665115 C301.45782371 369.8038446 301.45931964 372.34106275 301.46815491 374.87824631 C301.47911924 378.34713966 301.46533448 381.81510122 301.44543457 385.28393555 C301.45435746 386.28297818 301.46328034 387.28202082 301.47247362 388.31133747 C301.35472096 398.92643525 297.50057949 408.01190342 289.9375 415.51757812 C279.26778402 423.41418251 268.79716961 424.66591529 255.9296875 424.72070312 C254.88604034 424.7264032 253.84239319 424.73210327 252.76712036 424.73797607 C250.57018029 424.74738604 248.37322635 424.75394405 246.17626953 424.7578125 C242.81648449 424.76756656 239.45729927 424.79864746 236.09765625 424.83007812 C233.95833695 424.83660441 231.8190133 424.84185635 229.6796875 424.84570312 C228.6775119 424.85804993 227.6753363 424.87039673 226.64279175 424.88311768 C217.45818839 424.85373262 217.45818839 424.85373262 213.9375 421.51757812 C213.6075 419.86757813 213.2775 418.21757812 212.9375 416.51757812 C204.0275 416.51757812 195.1175 416.51757812 185.9375 416.51757812 C185.2775 418.49757813 184.6175 420.47757812 183.9375 422.51757812 C179.81119716 425.21114154 175.06126995 424.7872379 170.29174805 424.74462891 C169.4327037 424.74492096 168.57365936 424.74521301 167.68858337 424.74551392 C164.85869122 424.74412433 162.02906473 424.72858058 159.19921875 424.71289062 C157.23338464 424.70915918 155.26754867 424.70631283 153.30171204 424.70431519 C148.13466228 424.69668912 142.96772544 424.6770494 137.80072021 424.65490723 C132.52536547 424.63442671 127.24999244 424.62530875 121.97460938 424.61523438 C111.62885671 424.59380258 101.28318776 424.55967898 90.9375 424.51757812 C91.12782303 425.70505394 91.12782303 425.70505394 91.32199097 426.91651917 C92.54014513 434.652308 93.5687273 442.38859473 94.4453125 450.16992188 C94.57565887 451.3136879 94.70600525 452.45745392 94.84030151 453.63587952 C95.11212196 456.02802008 95.3826277 458.42031039 95.65185547 460.81274414 C96.06426479 464.47073148 96.48307729 468.12794923 96.90234375 471.78515625 C97.16705155 474.12170122 97.43138772 476.45828833 97.6953125 478.79492188 C97.82028107 479.88248276 97.94524963 480.97004364 98.07400513 482.09056091 C98.61319593 486.92271273 99.10431657 491.64579981 98.9375 496.51757812 C99.85039795 496.50186768 100.7632959 496.48615723 101.70385742 496.4699707 C105.1051201 496.41870843 108.50596963 496.38116373 111.9074707 496.3527832 C113.37693782 496.33773746 114.84636034 496.31729575 116.31567383 496.29125977 C118.4332177 496.25468857 120.55016565 496.23781012 122.66796875 496.22460938 C123.94051514 496.20889893 125.21306152 496.19318848 126.52416992 496.17700195 C130.46966164 496.57067629 133.11603002 497.69610814 135.9375 500.51757812 C136.52890471 507.73271557 136.52890471 507.73271557 134.35492039 510.61784458 C131.07053181 513.19888641 128.98627242 513.01810604 124.83299255 513.01878357 C124.11706989 513.02431797 123.40114722 513.02985236 122.66352993 513.03555447 C120.26418459 513.04916978 117.86587792 513.03418803 115.46655273 513.01928711 C113.74670978 513.02306995 112.02686986 513.02856971 110.30703735 513.03565979 C105.63560489 513.04963521 100.96453988 513.03843051 96.29312778 513.02194858 C91.40847394 513.00811273 86.52384176 513.0145564 81.63917542 513.01808167 C73.43688016 513.02078469 65.23473116 513.00729935 57.0324707 512.98413086 C47.54274364 512.95751168 38.05326102 512.95577649 28.5635094 512.96751922 C19.44171733 512.97828881 10.32001387 512.97211696 1.19822884 512.95796394 C-2.68729682 512.95219791 -6.57275775 512.95229164 -10.45828438 512.95702934 C-15.03099544 512.9617928 -19.60343793 512.95172378 -24.17609787 512.93007469 C-25.85672919 512.92449834 -27.53738628 512.92404927 -29.21801949 512.92902756 C-31.50730559 512.93495961 -33.79576474 512.92251641 -36.0849762 512.90525818 C-37.36752572 512.90282828 -38.65007524 512.90039839 -39.97148991 512.89789486 C-43.0625 512.51757812 -43.0625 512.51757812 -44.97369289 511.12811375 C-46.41200388 509.00060092 -46.46303406 507.5709841 -46.4375 505.01757812 C-46.44523438 504.24414062 -46.45296875 503.47070312 -46.4609375 502.67382812 C-45.9681562 500.0070117 -45.1901451 499.15576496 -43.0625 497.51757812 C-39.52423745 496.33815728 -36.72101274 496.40468624 -32.98828125 496.41992188 C-31.96253242 496.4220443 -31.96253242 496.4220443 -30.9160614 496.42420959 C-28.73566278 496.42979936 -26.55536749 496.44234991 -24.375 496.45507812 C-22.89518378 496.46009445 -21.41536594 496.46465713 -19.93554688 496.46875 C-16.31116443 496.47976541 -12.6868423 496.497023 -9.0625 496.51757812 C-9.02511719 495.75018311 -8.98773438 494.98278809 -8.94921875 494.19213867 C-8.25412319 482.06629889 -6.86219519 470.02542116 -5.47851562 457.96166992 C-5.05910989 454.30048431 -4.64639233 450.63858619 -4.234375 446.9765625 C-3.96914284 444.64253345 -3.70353177 442.30854742 -3.4375 439.97460938 C-3.31455566 438.88300003 -3.19161133 437.79139069 -3.06494141 436.66670227 C-2.94812012 435.65431992 -2.83129883 434.64193756 -2.7109375 433.59887695 C-2.55890869 432.26775627 -2.55890869 432.26775627 -2.40380859 430.90974426 C-2.09129757 428.71941475 -1.61582655 426.65669038 -1.0625 424.51757812 C-1.95941716 424.51942171 -2.85633432 424.5212653 -3.78043079 424.52316475 C-25.63201714 424.56738616 -47.48359575 424.60045531 -69.33521748 424.62120247 C-79.90261253 424.63150301 -90.46997767 424.64553997 -101.03735352 424.66845703 C-110.25081137 424.68842833 -119.46424755 424.70130344 -128.67772645 424.70575511 C-133.55350726 424.70835616 -138.42922607 424.71444425 -143.30498695 424.72903824 C-147.90056806 424.74268128 -152.49606202 424.74678724 -157.09166145 424.74379349 C-158.77216822 424.74434065 -160.4526781 424.74827786 -162.13316727 424.75598907 C-176.82823068 424.82007398 -187.92151607 423.79080239 -200.25 415.33007812 C-207.70582161 407.87425652 -211.26708707 399.26959416 -211.339311 388.82766271 C-211.3362138 387.81696871 -211.3331166 386.8062747 -211.32992554 385.76495361 C-211.33445665 384.68065779 -211.33898776 383.59636198 -211.34365618 382.47920871 C-211.35631849 378.84514532 -211.3546786 375.21123145 -211.35302734 371.57714844 C-211.35901146 368.97183031 -211.36581674 366.36651396 -211.37338257 363.76119995 C-211.38997898 357.41793709 -211.39549151 351.07471141 -211.39660732 344.73142865 C-211.39755852 339.57337576 -211.40167241 334.4153351 -211.40800858 329.25728607 C-211.42561794 314.62360282 -211.43484802 299.98994888 -211.43334763 285.35625497 C-211.43326772 284.5677338 -211.4331878 283.77921263 -211.43310547 282.96679688 C-211.43298283 281.78256575 -211.43298283 281.78256575 -211.43285771 280.57441077 C-211.43204508 267.78424137 -211.45117758 254.99418982 -211.4793822 242.2040545 C-211.50813397 229.06176365 -211.52192121 215.91953023 -211.52019465 202.77720714 C-211.5195315 195.40262166 -211.52499077 188.02815969 -211.54655075 180.6536026 C-211.56670308 173.71621072 -211.56606539 166.77908343 -211.55151749 159.84167862 C-211.54942679 157.29802952 -211.55414569 154.75436416 -211.5662384 152.21074295 C-211.58169922 148.73290206 -211.57237592 145.25595909 -211.55697632 141.77813721 C-211.56726344 140.77636609 -211.57755057 139.77459498 -211.58814943 138.74246716 C-211.48311789 127.97627368 -207.81355357 120.43606519 -200.43359375 112.71679688 C-192.79445809 105.63140416 -185.22344099 103.2023284 -174.93603516 103.29052734 C-174.03783051 103.29023529 -173.13962585 103.28994324 -172.21420288 103.28964233 C-169.25988947 103.29103019 -166.30583159 103.30656581 -163.3515625 103.32226562 C-161.29747658 103.32599769 -159.24338888 103.32884375 -157.18930054 103.33084106 C-151.79375254 103.3384623 -146.39831292 103.35809786 -141.00280762 103.38024902 C-135.49277207 103.40073997 -129.98271895 103.40984973 -124.47265625 103.41992188 C-113.66922333 103.44134514 -102.86587069 103.47546289 -92.0625 103.51757812 C-91.91941406 102.26074219 -91.77632813 101.00390625 -91.62890625 99.70898438 C-90.85265626 92.89057233 -87.93523315 88.71068506 -82.76171875 84.36914062 C-78.75055017 81.61762991 -74.44235149 79.60038417 -70.06542969 77.49853516 C-64.28614908 74.70328348 -59.10586733 71.51171344 -54.0625 67.51757812 C-53.28390625 66.90269531 -52.5053125 66.2878125 -51.703125 65.65429688 C-37.54129977 53.79733247 -32.11035713 37.91042544 -28.0625 20.51757812 C-26.28370235 13.47194945 -23.80473646 7.60818563 -17.50724792 3.50399017 C-11.65984968 0.22027862 -6.61486604 -0.05324316 0 0 Z " fill="#020101" transform="translate(211.0625,-0.517578125)"/>
<path d="M0 0 C0.87855148 -0.00029205 1.75710297 -0.00058411 2.66227722 -0.00088501 C5.55709822 0.00050483 8.45165968 0.01604983 11.34643555 0.03173828 C13.35711018 0.03546964 15.36778664 0.03831603 17.37846375 0.04031372 C22.66387983 0.04794051 27.94918555 0.06758086 33.23455811 0.08972168 C38.63055936 0.11020063 44.02657849 0.11931983 49.42260742 0.12939453 C60.00533813 0.1508276 70.58798703 0.18495208 81.1706543 0.22705078 C81.37428589 1.27662964 81.37428589 1.27662964 81.58203125 2.34741211 C82.21150624 5.5789657 82.84729648 8.8092473 83.4831543 12.03955078 C83.69649414 13.13976562 83.90983398 14.23998047 84.12963867 15.37353516 C95.91506616 75.0042802 132.57276011 127.37085625 180.50512695 163.95117188 C182.03194978 165.12079604 183.54537633 166.3078539 185.05737305 167.49658203 C191.18536749 172.24000869 197.54813143 176.57046864 204.0456543 180.78955078 C204.85478271 181.32700928 205.66391113 181.86446777 206.49755859 182.41821289 C212.35245635 186.17947962 212.35245635 186.17947962 219.1706543 186.22705078 C233.61872754 180.09363852 247.33874299 168.30797521 259.1706543 158.22705078 C260.24285657 157.33946834 261.31581344 156.45279689 262.3894043 155.56689453 C275.51061532 144.64626278 287.71562717 132.74582213 298.1706543 119.22705078 C299.04622081 118.1394697 299.92394514 117.05362335 300.8034668 115.96923828 C326.13485996 84.56719897 346.27886144 45.05029235 350.70019531 4.5378418 C350.83301659 3.32584862 350.83301659 3.32584862 350.96852112 2.08937073 C351.03522507 1.47480515 351.10192902 0.86023956 351.1706543 0.22705078 C362.74965233 0.11097179 374.32851091 0.02224136 385.90797329 -0.03201008 C391.28537553 -0.05805406 396.66237837 -0.09335726 402.03955078 -0.15014648 C407.23319971 -0.20465144 412.42646553 -0.23440884 417.62037849 -0.24733543 C419.59746388 -0.25654216 421.57452935 -0.27452081 423.55145073 -0.3015995 C443.60558438 -0.56525333 443.60558438 -0.56525333 450.1706543 5.22705078 C452.3269043 7.35986328 452.3269043 7.35986328 453.6706543 9.35205078 C454.1347168 10.01462891 454.5987793 10.67720703 455.0769043 11.35986328 C490.77413786 72.30014058 457.1706543 152.6012065 457.1706543 223.22705078 C298.1106543 223.22705078 139.0506543 223.22705078 -24.8293457 223.22705078 C-24.8293457 15.22705078 -24.8293457 15.22705078 -19.8293457 7.22705078 C-13.42537037 1.08990776 -8.53021281 -0.07447508 0 0 Z " fill="#7460F5" transform="translate(39.829345703125,117.77294921875)"/>
<path d="M0 0 C159.06 0 318.12 0 482 0 C482 39.45614035 482 39.45614035 476.21875 46.0234375 C475.6515625 46.46945312 475.084375 46.91546875 474.5 47.375 C473.64921875 48.06722656 473.64921875 48.06722656 472.78125 48.7734375 C468.99286744 51.38210444 466.26771606 52.25020839 461.63647461 52.27124023 C460.5653392 52.28142685 459.4942038 52.29161346 458.39060974 52.30210876 C457.23948196 52.30424881 456.08835419 52.30638885 454.90234375 52.30859375 C452.46809645 52.333743 450.03385172 52.35914118 447.59960938 52.38476562 C443.75903933 52.41357544 439.91851358 52.43759248 436.07788086 52.45629883 C432.3733065 52.47787703 428.66924293 52.51729994 424.96484375 52.55859375 C423.23511574 52.55876747 423.23511574 52.55876747 421.47044373 52.5589447 C420.40246048 52.57228348 419.33447723 52.58562225 418.23413086 52.59936523 C416.82326454 52.60697121 416.82326454 52.60697121 415.38389587 52.61473083 C412.96802582 52.8221757 412.96802582 52.8221757 411.23536682 54.27503967 C409.68564979 56.21562731 409.68564979 56.21562731 409 60 C399.76 60 390.52 60 381 60 C380.34 58.02 379.68 56.04 379 54 C375.75923918 52.91974639 373.42213545 52.87403764 370.01253891 52.87250805 C368.12379583 52.86799658 368.12379583 52.86799658 366.19689631 52.86339396 C364.79172554 52.86508164 363.38655486 52.86685271 361.98138428 52.86869812 C360.49473047 52.86699662 359.00807711 52.86484724 357.52142453 52.86228687 C354.28230021 52.85768292 351.04319502 52.85627035 347.80406761 52.85725212 C342.53429282 52.8588424 337.26453706 52.85364815 331.99476624 52.84762573 C324.34352372 52.8395064 316.69228454 52.83456672 309.04103851 52.83133507 C296.94948419 52.82584278 284.85795814 52.80894969 272.76641846 52.78999329 C268.63128285 52.78363628 264.49614718 52.77732788 260.36101151 52.77101612 C259.32753971 52.76943236 258.29406791 52.7678486 257.22927879 52.76621684 C245.46030898 52.74827367 233.69133718 52.73205047 221.92236328 52.71704102 C220.3082444 52.71497721 220.3082444 52.71497721 218.66151705 52.71287171 C201.22298299 52.69094118 183.78445618 52.68018555 166.34591076 52.67267027 C148.44974297 52.66460215 130.55363749 52.64132136 112.65750527 52.6047166 C101.61493466 52.58267727 90.57249214 52.57303133 79.52990064 52.57921693 C71.96277779 52.58238904 64.3957644 52.57107781 56.82867542 52.54832252 C52.4612346 52.53564199 48.09403759 52.5295002 43.7265873 52.54073906 C39.72801706 52.55089653 35.72992045 52.54268139 31.73140624 52.5198761 C30.28522403 52.51487592 28.8389994 52.51662098 27.39283773 52.52580877 C18.52263514 52.57773024 12.80366449 52.35545239 6.07421875 46.25390625 C5.61660156 45.69574219 5.15898437 45.13757813 4.6875 44.5625 C4.21699219 44.00691406 3.74648438 43.45132813 3.26171875 42.87890625 C-5.08788235 30.44498016 0 14.01114371 0 0 Z " fill="#E8E7FE" transform="translate(15,356)"/>
<path d="M0 0 C21.12 0 42.24 0 64 0 C66.64 6.6 69.28 13.2 72 20 C77.24875611 29.53647237 82.71319922 37.92007805 90 46 C90.75796875 46.84046875 91.5159375 47.6809375 92.296875 48.546875 C100.93863285 57.64048947 111.28050213 64.56830128 122 71 C120.08032184 103.63452877 102.87398487 134.81743821 83 160 C82.23816406 160.96808594 81.47632813 161.93617188 80.69140625 162.93359375 C69.05017324 177.19001795 55.77283309 190.97738869 41 202 C39.79537109 202.91845703 39.79537109 202.91845703 38.56640625 203.85546875 C36.72168 205.25260111 34.8684165 206.63482462 33 208 C27.67930032 205.57491919 23.48005018 201.69724571 19 198 C18.48695313 197.58008789 17.97390625 197.16017578 17.4453125 196.72753906 C7.18938596 188.31642858 7.18938596 188.31642858 2.97265625 183.88671875 C2.25130493 183.13032104 2.25130493 183.13032104 1.51538086 182.35864258 C0.20472641 180.96007417 -1.08207983 179.5392659 -2.3671875 178.1171875 C-5.63079163 175.49274619 -7.85739899 175.16339726 -12 175 C-12.99 175.33 -13.98 175.66 -15 176 C-20.6303335 170.00682279 -25.68255723 164.00949532 -30 157 C-29.34 156.01 -28.68 155.02 -28 154 C-27.38945425 148.92615431 -28.63046172 146.36249067 -31.4375 142.1875 C-32.17865805 141.04044981 -32.91544092 139.89056395 -33.6484375 138.73828125 C-34.03483398 138.13193848 -34.42123047 137.5255957 -34.81933594 136.90087891 C-46.71417661 117.75008703 -56.89911735 93.75157475 -58 71 C-56.49373047 70.12601563 -56.49373047 70.12601563 -54.95703125 69.234375 C-45.18450419 63.42754591 -37.06339876 56.98345005 -29 49 C-28.33742187 48.39800781 -27.67484375 47.79601562 -26.9921875 47.17578125 C-13.43303267 34.65721272 -5.72355675 17.17067024 0 0 Z " fill="#FBF184" transform="translate(224,45)"/>
<path d="M0 0 C1.49597466 -0.00832352 1.49597466 -0.00832352 3.02217102 -0.01681519 C6.31540123 -0.02861587 9.60725685 -0.00433082 12.90039062 0.02148438 C15.19055112 0.02319542 17.48071357 0.02312986 19.77087402 0.0213623 C24.56928254 0.0230158 29.36722401 0.04172003 34.16552734 0.07324219 C40.31600342 0.1129194 46.46586768 0.11728751 52.61644745 0.10977936 C57.34508875 0.10670972 62.07359251 0.11883006 66.80220032 0.13591003 C69.07000363 0.14294102 71.33782254 0.14606445 73.6056366 0.1452179 C76.77513801 0.14701572 79.94390656 0.16839711 83.11328125 0.1953125 C84.51922295 0.1909166 84.51922295 0.1909166 85.9535675 0.18643188 C90.79712001 0.24988909 94.13694687 0.43685964 98.05664062 3.61523438 C100.22906224 6.77074551 100.63598959 10.2004623 101.30664062 13.92773438 C106.33864555 38.15683809 120.59202611 58.5503537 141.24414062 72.17773438 C146.6724485 75.53299681 152.32656919 78.3094041 158.08789062 81.03710938 C160.74906399 82.45173311 162.23682281 83.28865294 164.05664062 85.61523438 C168.34392343 112.26930071 153.61213058 149.63368417 141.05664062 172.61523438 C140.67540039 173.31358398 140.29416016 174.01193359 139.90136719 174.73144531 C130.5484789 191.62090756 119.22476365 206.9806475 106.21289062 221.24023438 C104.27102582 223.37909995 102.37686466 225.54942822 100.49414062 227.74023438 C94.51658396 234.58550088 87.9808399 240.74235331 81.05664062 246.61523438 C80.18394531 247.36546875 79.31125 248.11570312 78.41210938 248.88867188 C70.57863717 255.537161 62.44057505 261.67901275 54.05664062 267.61523438 C52.99316406 268.3809375 51.9296875 269.14664062 50.83398438 269.93554688 C49.39732422 270.92167969 49.39732422 270.92167969 47.93164062 271.92773438 C47.1040625 272.50136719 46.27648437 273.075 45.42382812 273.66601562 C43.05664063 274.61523438 43.05664063 274.61523438 40.68408203 273.85400391 C38.14416276 272.65649876 35.95474027 271.34378918 33.65039062 269.74414062 C32.4201416 268.89057983 32.4201416 268.89057983 31.16503906 268.01977539 C30.30426758 267.41190186 29.44349609 266.80402832 28.55664062 266.17773438 C27.66750977 265.5524585 26.77837891 264.92718262 25.86230469 264.28295898 C18.56689509 259.09412864 11.74519213 253.56160704 5.05664062 247.61523438 C4.47760986 247.12015381 3.8985791 246.62507324 3.30200195 246.11499023 C-2.63608931 241.01714528 -8.21961926 235.58096665 -13.75585938 230.05273438 C-14.24235962 229.56724121 -14.72885986 229.08174805 -15.23010254 228.58154297 C-22.77722515 221.02386494 -29.71250354 213.30034922 -35.94335938 204.61523438 C-36.78156415 203.49291469 -37.62144236 202.37184309 -38.46289062 201.25195312 C-61.72429451 169.9441797 -78.27445185 131.21251805 -79.31835938 91.86523438 C-79.36734375 90.59164062 -79.41632813 89.31804687 -79.46679688 88.00585938 C-78.94335938 84.61523438 -78.94335938 84.61523438 -76.89648438 82.39648438 C-73.45561103 80.32103696 -69.9552777 78.56571841 -66.31835938 76.86523438 C-59.27475365 73.45348785 -53.05741016 69.53458558 -46.94335938 64.61523438 C-45.90501953 63.82246094 -45.90501953 63.82246094 -44.84570312 63.01367188 C-28.23695382 49.60780265 -18.64825164 28.34721458 -15.72851562 7.58007812 C-12.68998887 -0.02379729 -7.11542037 -0.10068721 0 0 Z M10.05664062 30.61523438 C8.07664063 35.89523438 6.09664062 41.17523438 4.05664062 46.61523438 C-6.76749033 70.54338215 -25.15023651 88.89147845 -47.94335938 101.61523438 C-47.46890121 108.60813245 -46.2550418 115.02955061 -44.25585938 121.74023438 C-43.98604248 122.65546875 -43.71622559 123.57070312 -43.43823242 124.51367188 C-37.87305683 143.073978 -30.39257677 160.79165769 -19.11132812 176.67675781 C-17.43623058 179.45691552 -17.35626793 181.45961787 -17.94335938 184.61523438 C-18.58370155 185.96140826 -19.24651913 187.29741956 -19.94335938 188.61523438 C-17.74396224 191.31804907 -15.53878192 194.01488472 -13.31445312 196.69726562 C-11.92533525 198.40677312 -10.56733329 200.14415996 -9.29101562 201.93945312 C-7.9339629 203.7927135 -6.81877961 205.28460202 -4.94335938 206.61523438 C-2.95619972 206.35882668 -0.96498612 206.09208818 0.99023438 205.65429688 C3.87087173 205.59984248 4.85284681 206.60862032 6.99414062 208.49023438 C8.37210218 209.84138734 9.72531769 211.2181046 11.05664062 212.61523438 C12.49129941 214.07636288 13.92889504 215.53461251 15.36914062 216.99023438 C16.119375 217.74949219 16.86960937 218.50875 17.64257812 219.29101562 C21.87070123 223.3617814 26.46200943 226.97033141 31.05664062 230.61523438 C32.95252834 232.13599992 34.84836474 233.65682943 36.74414062 235.17773438 C38.18113531 236.32420136 39.61843569 237.47028598 41.05664062 238.61523438 C45.564824 237.15694955 48.73675206 234.62981348 52.24414062 231.55273438 C52.81874023 231.05596191 53.39333984 230.55918945 53.98535156 230.04736328 C55.14728224 229.03964544 56.30634936 228.0286155 57.46240234 227.01416016 C58.81130992 225.83050925 60.16931816 224.65724187 61.52929688 223.48632812 C74.60747833 212.02329086 86.84359689 199.70940202 97.05664062 185.61523438 C97.83265625 184.56078125 98.60867188 183.50632813 99.40820312 182.41992188 C116.07943679 159.10311053 130.35247191 130.5861026 132.05664062 101.61523438 C131.17363281 101.06996094 130.290625 100.5246875 129.38085938 99.96289062 C101.2022256 82.34927122 85.82011867 61.20027729 74.05664062 30.61523438 C52.93664062 30.61523438 31.81664062 30.61523438 10.05664062 30.61523438 Z " fill="#FBC300" transform="translate(213.943359375,14.384765625)"/>
<path d="M0 0 C0.77283829 -0.00861557 1.54567657 -0.01723114 2.3419342 -0.02610779 C4.89374393 -0.04878928 7.4444573 -0.04202502 9.99633789 -0.03295898 C11.77226589 -0.03819392 13.54819111 -0.04446992 15.32411194 -0.05174255 C19.04563482 -0.06215097 22.76677544 -0.05757951 26.48828125 -0.04296875 C31.25462496 -0.02578669 36.01976255 -0.04926609 40.78597164 -0.08445835 C44.453496 -0.10643315 48.12073184 -0.10499062 51.78830147 -0.09669304 C53.54535812 -0.09587343 55.30243594 -0.1027387 57.05943108 -0.11746407 C59.5182361 -0.13491084 61.97487536 -0.12036873 64.43359375 -0.09765625 C65.51929153 -0.11519455 65.51929153 -0.11519455 66.62692261 -0.13308716 C70.54462614 -0.05955908 72.14569869 0.42143746 75.21002197 2.94902039 C77.03751026 5.22904612 78.03926963 6.66730654 78.80102539 9.43188477 C79.01404297 10.15093994 79.22706055 10.86999512 79.4465332 11.61083984 C79.66019531 12.36905029 79.87385742 13.12726074 80.09399414 13.90844727 C88.41759253 40.77468832 106.10745487 59.56268125 130.24267578 73.4765625 C136.84552357 77.31567049 136.84552357 77.31567049 138.28149414 79.53344727 C140.99845655 122.29607296 111.17301359 166.98303512 84.28149414 197.53344727 C78.57449838 203.97066169 72.86038221 210.35714069 66.24243164 215.88110352 C64.01713565 217.75620352 61.91032202 219.737106 59.78149414 221.72094727 C38.84261996 240.66719847 38.84261996 240.66719847 31.95336914 240.40844727 C27.88636059 239.43928778 25.78561244 238.12235906 22.53149414 235.53344727 C20.97688477 234.30754883 20.97688477 234.30754883 19.39086914 233.05688477 C18.35414237 232.21606981 17.31767655 231.37493298 16.28149414 230.53344727 C14.89704102 229.4390332 14.89704102 229.4390332 13.48461914 228.32250977 C6.45842463 222.69749277 -0.16156134 216.6900356 -6.71850586 210.53344727 C-7.61698242 209.72391602 -8.51545898 208.91438477 -9.44116211 208.08032227 C-13.02730029 204.73856434 -15.38845689 202.43358083 -17.09350586 197.78344727 C-16.71850586 194.53344727 -16.71850586 194.53344727 -14.71850586 191.53344727 C-11.71850586 189.53344727 -11.71850586 189.53344727 -8.48413086 189.47094727 C-3.35182924 190.91906557 -0.9965281 193.67295095 2.53149414 197.53344727 C3.84926304 198.91343193 5.17089302 200.28973979 6.49633789 201.66235352 C7.13941895 202.33024902 7.7825 202.99814453 8.44506836 203.6862793 C12.41449225 207.67892237 16.83914549 211.08425209 21.28149414 214.53344727 C23.17886265 216.05236491 25.07475559 217.57312804 26.96899414 219.09594727 C28.40598883 220.24241425 29.8432892 221.38849887 31.28149414 222.53344727 C35.78969452 221.07515694 38.96156316 218.54799934 42.46899414 215.47094727 C43.04286865 214.9748999 43.61674316 214.47885254 44.20800781 213.96777344 C45.90501348 212.49621595 47.59344506 211.01525944 49.28149414 209.53344727 C50.52286133 208.46223633 50.52286133 208.46223633 51.78930664 207.36938477 C64.51685274 196.19503073 76.31304489 184.23956152 86.28149414 170.53344727 C87.44745117 168.94983398 87.44745117 168.94983398 88.63696289 167.33422852 C105.30301685 144.01322702 119.57723518 115.50584955 121.28149414 86.53344727 C120.06526367 85.82381836 120.06526367 85.82381836 118.82446289 85.09985352 C92.92281938 69.63123521 72.81806467 46.84982764 64.28149414 17.53344727 C64.28149414 16.87344727 64.28149414 16.21344727 64.28149414 15.53344727 C43.16149414 15.53344727 22.04149414 15.53344727 0.28149414 15.53344727 C-0.70850586 19.98844727 -0.70850586 19.98844727 -1.71850586 24.53344727 C-2.64477539 27.12475586 -2.64477539 27.12475586 -3.60131836 29.18188477 C-3.95967773 29.95411377 -4.31803711 30.72634277 -4.68725586 31.52197266 C-5.25959961 32.70327759 -5.25959961 32.70327759 -5.84350586 33.90844727 C-6.24311523 34.73916748 -6.64272461 35.5698877 -7.05444336 36.42578125 C-12.35518055 47.17088715 -19.52370416 55.85826064 -27.71850586 64.53344727 C-28.40428711 65.28368164 -29.09006836 66.03391602 -29.79663086 66.80688477 C-37.20620183 74.62809857 -46.27153655 81.34096413 -55.71850586 86.53344727 C-56.37850586 86.53344727 -57.03850586 86.53344727 -57.71850586 86.53344727 C-52.50537163 112.03939244 -44.74689912 136.67198328 -29.81689453 158.28442383 C-27.20331292 162.18373993 -26.00514945 164.82933282 -26.71850586 169.53344727 C-29.00865302 172.54335496 -30.509862 174.2312863 -34.21850586 175.15844727 C-39.40993423 173.86059017 -42.30671195 168.95636443 -44.95141602 164.57519531 C-45.48581299 163.65734253 -45.48581299 163.65734253 -46.03100586 162.72094727 C-46.41562988 162.06715088 -46.80025391 161.41335449 -47.1965332 160.73974609 C-59.79740052 139.03078366 -76.70353905 106.53560386 -73.71850586 80.53344727 C-71.12090811 76.26641019 -68.21954442 74.48017656 -63.78100586 72.34594727 C-40.10127567 60.08133364 -22.78710116 38.54702396 -14.58276367 13.26733398 C-14.00456356 11.3999039 -13.46187568 9.5215841 -12.92163086 7.64282227 C-10.33338716 0.95372492 -6.7943247 -0.06108783 0 0 Z " fill="#040300" transform="translate(223.718505859375,29.466552734375)"/>
<path d="M0 0 C11.57899803 -0.11607899 23.15785662 -0.20480942 34.73731899 -0.25906086 C40.11472124 -0.28510484 45.49172407 -0.32040804 50.86889648 -0.37719727 C56.06254541 -0.43170222 61.25581123 -0.46145962 66.4497242 -0.47438622 C68.42680958 -0.48359294 70.40387506 -0.50157159 72.38079643 -0.52865028 C92.43493008 -0.79230411 92.43493008 -0.79230411 99 5 C101.15625 7.1328125 101.15625 7.1328125 102.5 9.125 C102.9640625 9.78757812 103.428125 10.45015625 103.90625 11.1328125 C139.60348356 72.0730898 106 152.37415572 106 223 C-53.06 223 -212.12 223 -376 223 C-376 222.67 -376 222.34 -376 222 C-227.83 222 -79.66 222 73 222 C86.50542779 109.68118407 86.50542779 109.68118407 68 5 C67.34 3.68 66.68 2.36 66 1 C44.55 1 23.1 1 1 1 C0.67 1.99 0.34 2.98 0 4 C0 2.68 0 1.36 0 0 Z " fill="#5C47E8" transform="translate(391,118)"/>
<path d="M0 0 C1.18094238 0.00253784 1.18094238 0.00253784 2.38574219 0.00512695 C9.73299222 0.22938458 15.21424567 2.44765849 21.3125 6.5625 C21.92351562 6.94535156 22.53453125 7.32820313 23.1640625 7.72265625 C29.00559093 11.90159582 33.18145723 19.81096905 35.3125 26.5625 C36.74902509 37.36438612 36.05885761 47.62609346 29.3125 56.5625 C28.65991211 57.06233398 28.00732422 57.56216797 27.33496094 58.07714844 C23.46686252 61.1774801 21.5469834 63.27944883 20.63671875 68.26025391 C20.35038959 72.695025 20.44517899 77.12307311 20.5625 81.5625 C20.90711024 101.68603619 20.90711024 101.68603619 14.8996582 108.06201172 C9.4611599 112.96841676 4.21516259 114.07953137 -2.8984375 113.9453125 C-8.56710727 113.16725979 -12.21823843 110.10909113 -16.0625 106.0625 C-19.34053588 101.01936788 -19.93630068 96.85048374 -19.8203125 90.91796875 C-19.82111932 89.42122191 -19.82378207 87.92447513 -19.828125 86.42773438 C-19.82616491 84.09008757 -19.81259732 81.75494543 -19.76660156 79.41772461 C-19.3624041 70.22938814 -19.3624041 70.22938814 -22.44287109 61.85058594 C-24.51611884 59.73619824 -24.51611884 59.73619824 -26.73632812 58.11108398 C-29.89685575 55.60267223 -31.26700102 52.26142307 -32.6875 48.5625 C-33.04457031 47.63308594 -33.40164062 46.70367187 -33.76953125 45.74609375 C-36.19739172 37.32606701 -35.69274159 27.41619437 -31.6875 19.5625 C-24.85511111 7.43454683 -14.08329486 -0.04372758 0 0 Z " fill="#020202" transform="translate(255.6875,88.4375)"/>
<path d="M0 0 C20.46 0 40.92 0 62 0 C63.74696147 15.86080582 63.74696147 15.86080582 64.48828125 22.66601562 C64.99249105 27.29433798 65.49771547 31.92253255 66.00927734 36.55004883 C66.42202662 40.28433327 66.82997857 44.01911446 67.23472595 47.75427437 C67.38931996 49.17326807 67.54558936 50.59208037 67.70362854 52.0106945 C67.92610862 54.01045369 68.14186891 56.0109569 68.35742188 58.01147461 C68.48177612 59.14620712 68.60613037 60.28093964 68.73425293 61.45005798 C69.04661015 65.62263463 69 69.81574823 69 74 C43.92 74 18.84 74 -7 74 C-7 68.43382539 -6.95413074 63.45644299 -6.35742188 58.01147461 C-6.21727661 56.71080551 -6.07713135 55.41013641 -5.93273926 54.0700531 C-5.77818064 52.68080502 -5.62351512 51.29156884 -5.46875 49.90234375 C-5.3113873 48.45793663 -5.1544527 47.01348281 -4.9979248 45.56898499 C-4.58789531 41.79567735 -4.17211177 38.023026 -3.75506592 34.25048828 C-3.25421554 29.70867781 -2.76062293 25.16607337 -2.26579285 20.62360382 C-1.51604218 13.74845009 -0.75716462 6.87435937 0 0 Z " fill="#C0BFF9" transform="translate(225,423)"/>
<path d="M0 0 C20.46 0 40.92 0 62 0 C63.74696147 15.86080582 63.74696147 15.86080582 64.48828125 22.66601562 C64.99249105 27.29433798 65.49771547 31.92253255 66.00927734 36.55004883 C66.42202662 40.28433327 66.82997857 44.01911446 67.23472595 47.75427437 C67.38931996 49.17326807 67.54558936 50.59208037 67.70362854 52.0106945 C67.92610862 54.01045369 68.14186891 56.0109569 68.35742188 58.01147461 C68.48177612 59.14620712 68.60613037 60.28093964 68.73425293 61.45005798 C69.04661015 65.62263463 69 69.81574823 69 74 C43.92 74 18.84 74 -7 74 C-7 73.67 -7 73.34 -7 73 C7.52 73 22.04 73 37 73 C36.59007812 69.72964844 36.18015625 66.45929688 35.7578125 63.08984375 C35.35298991 59.83614369 34.94962431 56.58226597 34.54638672 53.32836914 C34.27055609 51.10877954 33.99326914 48.88937031 33.71435547 46.67016602 C31.80446471 31.46343655 30.24436053 16.27663975 29 1 C19.76 1 10.52 1 1 1 C0.67 1.99 0.34 2.98 0 4 C0 2.68 0 1.36 0 0 Z " fill="#B1B0F6" transform="translate(225,423)"/>
<path d="M0 0 C6.51430427 2.21021038 10.92686117 6.9231718 14 13 C14.78347195 18.57606161 15.09438978 24.81840633 12.4375 29.9375 C10.05720802 32.92812326 7.66615318 35.27583401 4.68359375 37.640625 C2.95928283 39.03287605 1.44371922 40.3139878 0 42 C-0.30733933 44.98330784 -0.44099035 47.76858726 -0.44140625 50.75390625 C-0.45461411 51.61056381 -0.46782196 52.46722137 -0.48143005 53.34983826 C-0.52235332 56.08742538 -0.5440093 58.82467596 -0.5625 61.5625 C-0.58625803 64.30379274 -0.61432097 67.04476705 -0.65428162 69.78587341 C-0.67870643 71.49186605 -0.69350977 73.19802821 -0.69789124 74.90419006 C-0.77546627 80.77546627 -0.77546627 80.77546627 -3 83 C-6 83.3125 -6 83.3125 -9 83 C-11.56258968 79.15611548 -11.27896717 75.98974881 -11.2734375 71.53515625 C-11.29372444 69.83137361 -11.31457519 68.12759762 -11.3359375 66.42382812 C-11.35855114 63.73993321 -11.3750135 61.05630032 -11.38085938 58.37231445 C-11.39037754 55.78028103 -11.42414272 53.18942587 -11.4609375 50.59765625 C-11.45336929 49.39593529 -11.45336929 49.39593529 -11.44564819 48.16993713 C-11.50974366 44.54163224 -11.64387651 42.45370088 -13.92016602 39.55371094 C-14.94968384 38.78462402 -14.94968384 38.78462402 -16 38 C-16.59941406 37.51917969 -17.19882813 37.03835937 -17.81640625 36.54296875 C-18.68072266 35.87201172 -18.68072266 35.87201172 -19.5625 35.1875 C-23.80275089 31.52960117 -25.69141893 27.98150161 -26.27734375 22.3203125 C-26.46329669 16.83098173 -26.32138429 12.5669034 -23 8 C-15.37033883 0.49515946 -10.75898831 -0.72163946 0 0 Z " fill="#5C46EC" transform="translate(262,104)"/>
<path d="M0 0 C1.34888732 0.00015905 2.69778075 0.00584927 4.04663086 0.01586914 C5.10991859 0.01799156 5.10991859 0.01799156 6.19468689 0.02015686 C8.46699173 0.02577096 10.73919936 0.03832576 13.01147461 0.05102539 C14.54858257 0.05603858 16.08569206 0.0606018 17.62280273 0.06469727 C21.39823103 0.07574497 25.17358632 0.09301898 28.94897461 0.11352539 C29.04846038 5.09393603 29.12073147 10.07375791 29.16870117 15.05493164 C29.18871521 16.7464405 29.21593534 18.43788106 29.25073242 20.12915039 C29.29970526 22.57203093 29.32204494 25.0139905 29.33959961 27.45727539 C29.36024475 28.20344116 29.38088989 28.94960693 29.40216064 29.71838379 C29.40485348 36.13701633 27.42926945 41.29599748 23.16772461 46.13696289 C22.60053711 46.58297852 22.03334961 47.02899414 21.44897461 47.48852539 C20.88178711 47.95000977 20.31459961 48.41149414 19.73022461 48.88696289 C15.665808 51.68570591 12.85078876 52.35766082 7.87084961 52.30883789 C6.13061523 52.29916992 6.13061523 52.29916992 4.35522461 52.28930664 C3.14866211 52.27254883 1.94209961 52.25579102 0.69897461 52.23852539 C-1.13407227 52.22499023 -1.13407227 52.22499023 -3.00415039 52.21118164 C-6.01997321 52.18762052 -9.03540031 52.15472245 -12.05102539 52.11352539 C-11.64110352 51.51926758 -11.23118164 50.92500977 -10.80883789 50.31274414 C-3.54806118 39.14365461 -3.77442277 28.50033855 -3.98852539 15.48852539 C-4.02486527 12.78799831 -4.05294155 10.08764107 -4.07836914 7.38696289 C-4.09633545 6.20537598 -4.11430176 5.02378906 -4.1328125 3.80639648 C-4.01644027 -0.0252025 -3.87598775 0.14422136 0 0 Z " fill="#DEDDFE" transform="translate(468.051025390625,355.886474609375)"/>
<path d="M0 0 C0.93864899 -0.00700928 1.87729797 -0.01401855 2.84439087 -0.02124023 C5.94807497 -0.03884916 9.05084759 -0.02718601 12.15454102 -0.01367188 C14.31161168 -0.01636618 16.46868117 -0.02024808 18.62574768 -0.02526855 C23.14758868 -0.03116773 27.66911369 -0.02258776 32.19091797 -0.00390625 C37.98615174 0.0188696 43.780644 0.00577113 49.57585049 -0.01819611 C54.03084392 -0.03265424 58.48566174 -0.02804772 62.94066048 -0.01768494 C65.07729238 -0.015017 67.21394024 -0.01828975 69.35055351 -0.02760315 C72.33829809 -0.03776718 75.3248446 -0.02226848 78.3125 0 C79.19526108 -0.00809692 80.07802216 -0.01619385 80.98753357 -0.02453613 C85.0620648 0.03169754 87.21413789 0.21027182 90.76991272 2.36633301 C92.72094727 4.51757812 92.72094727 4.51757812 93.34594727 7.45507812 C92.49072725 11.64565621 91.10282006 12.91316525 87.72094727 15.51757812 C84.58293784 16.24144504 81.52173732 16.1911881 78.3125 16.14868164 C76.90189804 16.1594146 76.90189804 16.1594146 75.46279907 16.17036438 C72.35954975 16.18725023 69.25774513 16.16785045 66.15454102 16.14648438 C63.99650452 16.14731301 61.83846809 16.14977219 59.68043518 16.15379333 C55.16029842 16.15665118 50.64065722 16.14194972 46.12060547 16.11450195 C40.32415632 16.08039921 34.52859215 16.08644453 28.73210049 16.10516453 C24.27713125 16.11572748 19.82236833 16.10680337 15.36741829 16.09177971 C13.22996699 16.08659366 11.09249418 16.08708481 8.9550457 16.09332466 C5.96955818 16.09876902 2.98534262 16.07842693 0 16.05102539 C-1.32717796 16.06081421 -1.32717796 16.06081421 -2.6811676 16.07080078 C-8.63262009 15.97781853 -8.63262009 15.97781853 -11.82774353 13.70298767 C-13.96573749 10.4835549 -13.81813305 8.29114033 -13.27905273 4.51757812 C-9.8736981 -0.61259814 -5.60363659 -0.05128048 0 0 Z " fill="#000001" transform="translate(66.279052734375,269.482421875)"/>
<path d="M0 0 C1.41038292 -0.00788544 1.41038292 -0.00788544 2.84925842 -0.01593018 C5.95761725 -0.02913507 9.06546407 -0.02039021 12.17382812 -0.01025391 C14.33329364 -0.0122745 16.4927585 -0.01518581 18.65222168 -0.01895142 C23.17820736 -0.02337544 27.70401543 -0.01694108 32.22998047 -0.00292969 C38.03416837 0.0141621 43.83794011 0.00432136 49.64211273 -0.01364708 C54.10132997 -0.02448271 58.56044838 -0.02103956 63.01966858 -0.0132637 C65.1599177 -0.01126109 67.30017576 -0.01372309 69.44041443 -0.02070236 C72.43057046 -0.02831307 75.42005061 -0.01671765 78.41015625 0 C79.2965126 -0.00607269 80.18286896 -0.01214539 81.09608459 -0.0184021 C87.07320896 0.04357103 87.07320896 0.04357103 90.25280762 1.77767944 C92.14852711 3.87994903 92.24248256 5.08285091 92.20507812 7.88818359 C92.22054687 9.04833984 92.22054687 9.04833984 92.23632812 10.23193359 C91.70507812 12.38818359 91.70507812 12.38818359 90.25280762 13.99868774 C86.386365 16.10739119 82.74766317 15.80608475 78.41015625 15.77636719 C76.99977333 15.78425262 76.99977333 15.78425262 75.56089783 15.79229736 C72.452539 15.80550226 69.34469218 15.7967574 66.23632812 15.78662109 C64.07686261 15.78864168 61.91739775 15.791553 59.75793457 15.7953186 C55.23194889 15.79974263 50.70614082 15.79330826 46.18017578 15.77929688 C40.37598788 15.76220509 34.57221614 15.77204583 28.76804352 15.79001427 C24.30882628 15.8008499 19.84970787 15.79740674 15.39048767 15.78963089 C13.25023855 15.78762828 11.10998049 15.79009028 8.96974182 15.79706955 C5.97958579 15.80468025 2.99010564 15.79308484 0 15.77636719 C-1.32953453 15.78547623 -1.32953453 15.78547623 -2.68592834 15.79476929 C-8.66305271 15.73279615 -8.66305271 15.73279615 -11.84265137 13.99868774 C-13.73837086 11.89641816 -13.83232631 10.69351628 -13.79492188 7.88818359 C-13.80523437 7.11474609 -13.81554687 6.34130859 -13.82617188 5.54443359 C-13.29492188 3.38818359 -13.29492188 3.38818359 -11.84265137 1.77767944 C-7.97620875 -0.33102401 -4.33750692 -0.02971756 0 0 Z " fill="#000000" transform="translate(367.294921875,269.61181640625)"/>
<path d="M0 0 C0.64604187 -0.00700928 1.29208374 -0.01401855 1.95770264 -0.02124023 C4.08755834 -0.03880645 6.21607868 -0.02720288 8.34594727 -0.01367188 C9.83041132 -0.01636756 11.31487365 -0.02025062 12.79933167 -0.02526855 C15.90887277 -0.03116195 19.01795384 -0.02260766 22.12744141 -0.00390625 C26.10676749 0.01886412 30.08501328 0.00577258 34.06429958 -0.01819611 C37.12962427 -0.03267583 40.19469443 -0.02803797 43.26002693 -0.01768494 C44.72679841 -0.01502259 46.19359324 -0.01827013 47.66033745 -0.02760315 C49.71428139 -0.03780337 51.76649678 -0.02222274 53.8203125 0 C54.98739243 0.00318237 56.15447235 0.00636475 57.35691833 0.00964355 C61.13214349 0.6246555 62.80836779 1.81581215 65.47485352 4.51757812 C66.09985352 7.45507812 66.09985352 7.45507812 65.47485352 10.51757812 C62.91811871 13.71111249 61.41921125 15.32731271 57.35691833 16.14576721 C56.18983841 16.14672897 55.02275848 16.14769073 53.8203125 16.14868164 C52.84862122 16.1594146 52.84862122 16.1594146 51.8572998 16.17036438 C49.72778614 16.18719811 47.6003937 16.16788697 45.47094727 16.14648438 C43.98551764 16.14731349 42.50008811 16.14977447 41.0146637 16.15379333 C37.9067919 16.1566475 34.79964233 16.14198719 31.69189453 16.11450195 C27.71134218 16.08038875 23.73207828 16.08645012 19.75146389 16.10516453 C16.68615504 16.11573935 13.62114537 16.10679309 10.55586433 16.09177971 C9.08827668 16.08660289 7.62065773 16.08707366 6.15307426 16.09332466 C4.10136725 16.09878445 2.0514975 16.07838402 0 16.05102539 C-1.16628433 16.04482681 -2.33256866 16.03862823 -3.53419495 16.03224182 C-7.16076371 15.4082052 -8.35119459 14.44408563 -10.52514648 11.51757812 C-11.07754814 7.65076654 -11.2690163 5.51940736 -8.90171814 2.33117676 C-5.77923702 -0.05163694 -3.90593051 0.01065789 0 0 Z " fill="#010002" transform="translate(63.525146484375,231.482421875)"/>
<path d="M0 0 C0.64764816 -0.00525696 1.29529633 -0.01051392 1.96257019 -0.01593018 C4.09703908 -0.02910191 6.23075829 -0.02040287 8.36523438 -0.01025391 C9.85209292 -0.01227547 11.33895051 -0.0151876 12.82580566 -0.01895142 C15.93946793 -0.02337091 19.05287172 -0.01695602 22.16650391 -0.00292969 C26.15473251 0.01416228 30.14235544 0.00431905 34.13056183 -0.01364708 C37.2000992 -0.02449521 40.26949332 -0.02103392 43.33903503 -0.0132637 C44.80942354 -0.01126453 46.27982512 -0.01371106 47.75019836 -0.02070236 C49.80647154 -0.02833416 51.86176819 -0.01669017 53.91796875 0 C55.67191956 0.00358017 55.67191956 0.00358017 57.46130371 0.00723267 C60.74132789 0.42406434 62.13066275 1.07976477 64.45898438 3.38818359 C64.99023438 5.54443359 64.99023438 5.54443359 64.95898438 7.88818359 C64.97445312 9.04833984 64.97445312 9.04833984 64.99023438 10.23193359 C64.45898438 12.38818359 64.45898438 12.38818359 62.83459473 13.99868774 C59.71188692 15.82516132 57.52810028 15.76899818 53.91796875 15.77636719 C52.94649651 15.78425262 52.94649651 15.78425262 51.95539856 15.79229736 C49.82092967 15.8054691 47.68721046 15.79677006 45.55273438 15.78662109 C44.06587583 15.78864266 42.57901824 15.79155479 41.09216309 15.7953186 C37.97850082 15.7997381 34.86509703 15.79332321 31.75146484 15.77929688 C27.76323624 15.7622049 23.77561331 15.77204813 19.78740692 15.79001427 C16.71786955 15.8008624 13.64847543 15.7974011 10.57893372 15.78963089 C9.10854521 15.78763172 7.63814363 15.79007825 6.16777039 15.79706955 C4.11149721 15.80470135 2.05620056 15.79305736 0 15.77636719 C-1.75395081 15.77278702 -1.75395081 15.77278702 -3.54333496 15.76913452 C-6.82335914 15.35230285 -8.212694 14.69660242 -10.54101562 12.38818359 C-11.07226562 10.23193359 -11.07226562 10.23193359 -11.04101562 7.88818359 C-11.05132812 7.11474609 -11.06164062 6.34130859 -11.07226562 5.54443359 C-10.54101562 3.38818359 -10.54101562 3.38818359 -8.91662598 1.77767944 C-5.79391817 -0.04879413 -3.61013153 0.00736901 0 0 Z " fill="#000002" transform="translate(394.541015625,231.61181640625)"/>
</svg>
