<?xml version="1.0" encoding="UTF-8"?>
<svg version="1.1" xmlns="http://www.w3.org/2000/svg" width="512" height="512">
<path d="M0 0 C1.18078125 -0.03738281 2.3615625 -0.07476562 3.578125 -0.11328125 C13.34329207 -0.21225254 13.34329207 -0.21225254 17.015625 2.7734375 C19.93581423 6.17351797 20.37489383 7.63243206 20.3125 12 C20.30347656 12.81726563 20.29445312 13.63453125 20.28515625 14.4765625 C20.27355469 15.10304688 20.26195312 15.72953125 20.25 16.375 C21.14012283 16.36833817 22.03024567 16.36167633 22.94734192 16.35481262 C31.37623686 16.29445629 39.80505818 16.24890168 48.23412037 16.21956348 C52.56657518 16.20397288 56.89884994 16.18285687 61.23120117 16.14868164 C65.41983981 16.11585054 69.60830635 16.09809744 73.79706383 16.09036827 C75.38729241 16.08486705 76.97751262 16.07412569 78.56766701 16.05780983 C90.56406142 15.93972545 101.02125547 17.2489882 111.8125 22.8125 C112.47378906 23.14668945 113.13507813 23.48087891 113.81640625 23.82519531 C120.16691835 27.13966502 126.08376451 31.0745577 131.95922852 35.16186523 C137.96686047 39.32384931 144.08001202 42.95387903 151.125 45.0625 C152.23488281 45.40861328 152.23488281 45.40861328 153.3671875 45.76171875 C180.40349831 51.51334585 208.61148664 47.98016409 236.25 48.375 C236.25 103.815 236.25 159.255 236.25 216.375 C143.97175293 216.375 143.97175293 216.375 117.6875 198.1875 C101.50504023 187.05922789 87.08616747 185.30680621 67.7109375 185.05859375 C66.33516898 185.03797197 64.95940604 185.01697434 63.58364868 184.99562073 C59.99664899 184.94093852 56.40959736 184.89129637 52.82250977 184.84277344 C49.14855434 184.79216012 45.47467251 184.73668393 41.80078125 184.68164062 C34.61725017 184.57471979 27.43365707 184.47313372 20.25 184.375 C20.25523682 185.67236084 20.26047363 186.96972168 20.26586914 188.30639648 C20.28391469 193.10147415 20.29543037 197.8965488 20.30493164 202.69165039 C20.30997288 204.77043156 20.31680574 206.84920916 20.32543945 208.92797852 C20.33751422 211.90902586 20.34323024 214.89002649 20.34765625 217.87109375 C20.35281754 218.80650497 20.35797882 219.7419162 20.36329651 220.70567322 C20.36337204 221.56649002 20.36344757 222.42730682 20.36352539 223.31420898 C20.365746 224.07587875 20.36796661 224.83754852 20.37025452 225.62229919 C20.25 227.375 20.25 227.375 19.25 228.375 C16.25 228.5 16.25 228.5 13.25 228.375 C11.43428324 226.55928324 12.12042948 224.05031885 12.10873187 221.6326853 C12.11033424 220.38529328 12.11033424 220.38529328 12.11196899 219.11270142 C12.10914771 218.23599993 12.10632643 217.35929845 12.10341966 216.45603025 C12.09503366 213.49492938 12.09373201 210.53386571 12.09228516 207.57275391 C12.08761991 205.45927321 12.08247684 203.34579352 12.07688904 201.23231506 C12.06558603 196.66949177 12.05716256 192.10667509 12.05076981 187.54384232 C12.04011917 180.33465365 12.01988283 173.12551241 11.99765015 165.91635132 C11.93562512 145.41235522 11.8816771 124.90836164 11.84863281 104.40429688 C11.8303167 93.0890457 11.8014189 81.7738736 11.7606281 70.45868051 C11.73950754 64.46534955 11.72409371 58.47211846 11.72182083 52.47874832 C11.71968121 46.84318849 11.70388234 41.20783659 11.67743111 35.57234001 C11.67021039 33.49986224 11.66815046 31.42735934 11.67153358 29.35487175 C11.67540473 26.53342062 11.66105048 23.71264139 11.64199829 20.89126587 C11.64752799 20.06413263 11.65305768 19.23699939 11.65875494 18.38480151 C11.71024519 14.25936493 11.71024519 14.25936493 9.95659578 10.66714704 C7.07656233 8.48653301 3.71335236 8.94453706 0.25 9 C-0.47445312 8.98839844 -1.19890625 8.97679688 -1.9453125 8.96484375 C-5.96486698 8.92484971 -5.96486698 8.92484971 -9.45659578 10.66714704 C-11.710442 13.64319882 -11.16599425 17.30194471 -11.14199829 20.89126587 C-11.14793955 21.77108734 -11.15388081 22.6509088 -11.16000211 23.55739152 C-11.17636377 26.51706652 -11.17133533 29.4763244 -11.16650391 32.43603516 C-11.17387983 34.55305972 -11.18258355 36.67008002 -11.19252014 38.78709412 C-11.2158991 44.54508648 -11.22099571 50.30297115 -11.22317934 56.06100512 C-11.22882698 62.07573112 -11.2520905 68.09038623 -11.27377319 74.10507202 C-11.31234138 85.50062956 -11.33653273 96.89616691 -11.35489786 108.2917732 C-11.38827921 128.7148387 -11.44590608 149.13784385 -11.50888956 169.56083715 C-11.53044373 176.73508224 -11.54567764 183.90930627 -11.55572915 191.08357644 C-11.56272306 195.53588015 -11.57359966 199.98816873 -11.58537102 204.44046211 C-11.58994763 206.51379016 -11.5927808 208.58712285 -11.59379387 210.6604557 C-11.59535411 213.4779025 -11.60290233 216.29527033 -11.61196899 219.11270142 C-11.61090074 219.9442961 -11.60983249 220.77589078 -11.60873187 221.6326853 C-11.63596405 227.26096405 -11.63596405 227.26096405 -12.75 228.375 C-15.75 228.5 -15.75 228.5 -18.75 228.375 C-20.82412469 226.30087531 -19.90222468 221.80084895 -19.90390015 218.94306946 C-19.9082824 218.04806691 -19.91266465 217.15306436 -19.9171797 216.23094052 C-19.9306201 213.20775064 -19.9367583 210.18458993 -19.94287109 207.16137695 C-19.95076801 205.00350308 -19.95903669 202.84563053 -19.96765137 200.6877594 C-19.99392143 193.57961294 -20.00918505 186.47146043 -20.0234375 179.36328125 C-20.02879534 176.92009159 -20.03417284 174.47690196 -20.03956985 172.03371239 C-20.06120686 161.8726226 -20.07994446 151.71153444 -20.09119225 141.55042744 C-20.10743564 126.97008441 -20.14061381 112.39000775 -20.19759309 97.80976516 C-20.23625555 87.56854694 -20.25582064 77.32740007 -20.26111281 67.08611077 C-20.26477163 60.96459237 -20.27684926 54.84335773 -20.30921555 48.72191811 C-20.33923049 42.96237051 -20.34563128 37.20327933 -20.33383179 31.44367027 C-20.3336105 29.32888465 -20.34196128 27.21407826 -20.35948563 25.09936523 C-20.38210375 22.21297388 -20.37391615 19.32824768 -20.35800171 16.44184875 C-20.3718838 15.6039993 -20.38576588 14.76614984 -20.40006864 13.90291101 C-20.34362863 9.75115932 -19.98986928 7.15781734 -17.33699989 3.87082195 C-12.27274823 -1.01494186 -6.73917332 0.07988244 0 0 Z " fill="#4CB5AB" transform="translate(215.75,67.625)"/>
<path d="M0 0 C1.59240509 -0.02409439 1.59240509 -0.02409439 3.21697998 -0.04867554 C8.07921761 -0.09309254 12.94131787 -0.1341968 17.80371094 -0.15722656 C20.3682564 -0.17378249 22.93275579 -0.20106728 25.49707031 -0.23925781 C29.19262663 -0.29402443 32.8871003 -0.31590235 36.58300781 -0.33056641 C37.72695007 -0.35323578 38.87089233 -0.37590515 40.04949951 -0.39926147 C48.93216579 -0.3756945 48.93216579 -0.3756945 52.61914062 2.60058594 C55.98415369 6.40647736 56.04025159 8.23178975 56.06503296 13.23944092 C56.07363342 14.52929901 56.08223389 15.8191571 56.09109497 17.14810181 C56.09553036 18.58587606 56.09982871 20.02365075 56.10400391 21.46142578 C56.11190387 22.96920969 56.12017276 24.47699171 56.12878418 25.98477173 C56.15501801 30.94474478 56.17031384 35.90472633 56.18457031 40.86474609 C56.18992956 42.57150529 56.19530707 44.27826442 56.20070267 45.9850235 C56.222334 53.08453515 56.24107078 60.18404451 56.25232506 67.28358078 C56.26856424 77.46121598 56.30173814 87.63846939 56.35872591 97.81596065 C56.39742033 104.97017574 56.41695718 112.1242887 56.42224562 119.2786057 C56.42589999 123.55239362 56.43792972 127.82577445 56.47034836 132.09944916 C56.50042027 136.1214843 56.50674431 140.1428659 56.4949646 144.16498947 C56.49474378 145.63959819 56.50305583 147.11423715 56.52061844 148.5887413 C56.66171408 161.11880145 56.66171408 161.11880145 53.49966431 165.05450439 C49.96380852 167.97544868 48.32052745 168.32398768 43.82226562 168.38574219 C42.76066223 168.40180511 41.69905884 168.41786804 40.60528564 168.43441772 C35.74304802 168.47883472 30.88094776 168.51993898 26.01855469 168.54296875 C23.45400923 168.55952468 20.88950984 168.58680947 18.32519531 168.625 C14.62963899 168.67976662 10.93516532 168.70164454 7.23925781 168.71630859 C5.52334442 168.75031265 5.52334442 168.75031265 3.77276611 168.78500366 C-5.10990017 168.76143669 -5.10990017 168.76143669 -8.796875 165.78515625 C-12.16188806 161.97926483 -12.21798596 160.15395244 -12.24276733 155.14630127 C-12.2513678 153.85644318 -12.25996826 152.56658508 -12.26882935 151.23764038 C-12.27326474 149.79986613 -12.27756308 148.36209144 -12.28173828 146.92431641 C-12.28963825 145.41653249 -12.29790713 143.90875048 -12.30651855 142.40097046 C-12.33275238 137.44099741 -12.34804822 132.48101586 -12.36230469 127.52099609 C-12.36766394 125.8142369 -12.37304144 124.10747777 -12.37843704 122.40071869 C-12.40006837 115.30120704 -12.41880515 108.20169768 -12.43005943 101.10216141 C-12.44629862 90.92452621 -12.47947251 80.7472728 -12.53646028 70.56978154 C-12.5751547 63.41556645 -12.59469156 56.26145349 -12.59998 49.10713649 C-12.60363437 44.83334857 -12.6156641 40.55996773 -12.64808273 36.28629303 C-12.67815465 32.26425789 -12.68447868 28.24287629 -12.67269897 24.22075272 C-12.67247816 22.74614399 -12.6807902 21.27150503 -12.69835281 19.79700089 C-12.83944846 7.26694074 -12.83944846 7.26694074 -9.67739868 3.33123779 C-6.1415429 0.41029351 -4.49826183 0.0617545 0 0 Z " fill="#FE5151" transform="translate(24.0888671875,315.80712890625)"/>
<path d="M0 0 C1.18078125 -0.03738281 2.3615625 -0.07476562 3.578125 -0.11328125 C13.34329207 -0.21225254 13.34329207 -0.21225254 17.015625 2.7734375 C19.93581423 6.17351797 20.37489383 7.63243206 20.3125 12 C20.30347656 12.81726563 20.29445312 13.63453125 20.28515625 14.4765625 C20.27355469 15.10304688 20.26195312 15.72953125 20.25 16.375 C21.14012283 16.36833817 22.03024567 16.36167633 22.94734192 16.35481262 C31.37623686 16.29445629 39.80505818 16.24890168 48.23412037 16.21956348 C52.56657518 16.20397288 56.89884994 16.18285687 61.23120117 16.14868164 C65.41983981 16.11585054 69.60830635 16.09809744 73.79706383 16.09036827 C75.38729241 16.08486705 76.97751262 16.07412569 78.56766701 16.05780983 C90.56406142 15.93972545 101.02125547 17.2489882 111.8125 22.8125 C112.47378906 23.14668945 113.13507813 23.48087891 113.81640625 23.82519531 C120.16691835 27.13966502 126.08376451 31.0745577 131.95922852 35.16186523 C137.96686047 39.32384931 144.08001202 42.95387903 151.125 45.0625 C152.23488281 45.40861328 152.23488281 45.40861328 153.3671875 45.76171875 C180.40349831 51.51334585 208.61148664 47.98016409 236.25 48.375 C236.25 103.815 236.25 159.255 236.25 216.375 C143.97175293 216.375 143.97175293 216.375 117.6875 198.1875 C101.50504023 187.05922789 87.08616747 185.30680621 67.7109375 185.05859375 C66.33516898 185.03797197 64.95940604 185.01697434 63.58364868 184.99562073 C59.99664899 184.94093852 56.40959736 184.89129637 52.82250977 184.84277344 C49.14855434 184.79216012 45.47467251 184.73668393 41.80078125 184.68164062 C34.61725017 184.57471979 27.43365707 184.47313372 20.25 184.375 C20.25523682 185.67236084 20.26047363 186.96972168 20.26586914 188.30639648 C20.28391469 193.10147415 20.29543037 197.8965488 20.30493164 202.69165039 C20.30997288 204.77043156 20.31680574 206.84920916 20.32543945 208.92797852 C20.33751422 211.90902586 20.34323024 214.89002649 20.34765625 217.87109375 C20.35281754 218.80650497 20.35797882 219.7419162 20.36329651 220.70567322 C20.36337204 221.56649002 20.36344757 222.42730682 20.36352539 223.31420898 C20.365746 224.07587875 20.36796661 224.83754852 20.37025452 225.62229919 C20.25 227.375 20.25 227.375 19.25 228.375 C16.25 228.5 16.25 228.5 13.25 228.375 C11.43428324 226.55928324 12.12042948 224.05031885 12.10873187 221.6326853 C12.11033424 220.38529328 12.11033424 220.38529328 12.11196899 219.11270142 C12.10914771 218.23599993 12.10632643 217.35929845 12.10341966 216.45603025 C12.09503366 213.49492938 12.09373201 210.53386571 12.09228516 207.57275391 C12.08761991 205.45927321 12.08247684 203.34579352 12.07688904 201.23231506 C12.06558603 196.66949177 12.05716256 192.10667509 12.05076981 187.54384232 C12.04011917 180.33465365 12.01988283 173.12551241 11.99765015 165.91635132 C11.93562512 145.41235522 11.8816771 124.90836164 11.84863281 104.40429688 C11.8303167 93.0890457 11.8014189 81.7738736 11.7606281 70.45868051 C11.73950754 64.46534955 11.72409371 58.47211846 11.72182083 52.47874832 C11.71968121 46.84318849 11.70388234 41.20783659 11.67743111 35.57234001 C11.67021039 33.49986224 11.66815046 31.42735934 11.67153358 29.35487175 C11.67540473 26.53342062 11.66105048 23.71264139 11.64199829 20.89126587 C11.64752799 20.06413263 11.65305768 19.23699939 11.65875494 18.38480151 C11.71024519 14.25936493 11.71024519 14.25936493 9.95659578 10.66714704 C7.07656233 8.48653301 3.71335236 8.94453706 0.25 9 C-0.47445312 8.98839844 -1.19890625 8.97679688 -1.9453125 8.96484375 C-5.96486698 8.92484971 -5.96486698 8.92484971 -9.45659578 10.66714704 C-11.710442 13.64319882 -11.16599425 17.30194471 -11.14199829 20.89126587 C-11.14793955 21.77108734 -11.15388081 22.6509088 -11.16000211 23.55739152 C-11.17636377 26.51706652 -11.17133533 29.4763244 -11.16650391 32.43603516 C-11.17387983 34.55305972 -11.18258355 36.67008002 -11.19252014 38.78709412 C-11.2158991 44.54508648 -11.22099571 50.30297115 -11.22317934 56.06100512 C-11.22882698 62.07573112 -11.2520905 68.09038623 -11.27377319 74.10507202 C-11.31234138 85.50062956 -11.33653273 96.89616691 -11.35489786 108.2917732 C-11.38827921 128.7148387 -11.44590608 149.13784385 -11.50888956 169.56083715 C-11.53044373 176.73508224 -11.54567764 183.90930627 -11.55572915 191.08357644 C-11.56272306 195.53588015 -11.57359966 199.98816873 -11.58537102 204.44046211 C-11.58994763 206.51379016 -11.5927808 208.58712285 -11.59379387 210.6604557 C-11.59535411 213.4779025 -11.60290233 216.29527033 -11.61196899 219.11270142 C-11.61090074 219.9442961 -11.60983249 220.77589078 -11.60873187 221.6326853 C-11.63596405 227.26096405 -11.63596405 227.26096405 -12.75 228.375 C-15.75 228.5 -15.75 228.5 -18.75 228.375 C-20.82412469 226.30087531 -19.90222468 221.80084895 -19.90390015 218.94306946 C-19.9082824 218.04806691 -19.91266465 217.15306436 -19.9171797 216.23094052 C-19.9306201 213.20775064 -19.9367583 210.18458993 -19.94287109 207.16137695 C-19.95076801 205.00350308 -19.95903669 202.84563053 -19.96765137 200.6877594 C-19.99392143 193.57961294 -20.00918505 186.47146043 -20.0234375 179.36328125 C-20.02879534 176.92009159 -20.03417284 174.47690196 -20.03956985 172.03371239 C-20.06120686 161.8726226 -20.07994446 151.71153444 -20.09119225 141.55042744 C-20.10743564 126.97008441 -20.14061381 112.39000775 -20.19759309 97.80976516 C-20.23625555 87.56854694 -20.25582064 77.32740007 -20.26111281 67.08611077 C-20.26477163 60.96459237 -20.27684926 54.84335773 -20.30921555 48.72191811 C-20.33923049 42.96237051 -20.34563128 37.20327933 -20.33383179 31.44367027 C-20.3336105 29.32888465 -20.34196128 27.21407826 -20.35948563 25.09936523 C-20.38210375 22.21297388 -20.37391615 19.32824768 -20.35800171 16.44184875 C-20.3718838 15.6039993 -20.38576588 14.76614984 -20.40006864 13.90291101 C-20.34362863 9.75115932 -19.98986928 7.15781734 -17.33699989 3.87082195 C-12.27274823 -1.01494186 -6.73917332 0.07988244 0 0 Z M20.25 24.375 C20.25 74.535 20.25 124.695 20.25 176.375 C43.02 176.705 65.79 177.035 89.25 177.375 C104.37802982 180.40060596 114.63454734 185.54142411 127.20605469 194.01025391 C130.22517115 196.02612359 133.28939506 197.96292913 136.375 199.875 C137.34695313 200.4834375 138.31890625 201.091875 139.3203125 201.71875 C165.8577857 216.72126818 200.07492963 208.375 228.25 208.375 C228.25 158.215 228.25 108.055 228.25 56.375 C204.49 56.045 180.73 55.715 156.25 55.375 C143.41176044 51.36305014 134.57754979 47.69938428 123.9296875 40.43359375 C89.83871335 17.20018928 69.68016876 24.375 20.25 24.375 Z " fill="#263238" transform="translate(215.75,67.625)"/>
<path d="M0 0 C0.96002426 -0.00817749 1.92004852 -0.01635498 2.90916443 -0.02478027 C6.08046863 -0.0495546 9.25172829 -0.06613028 12.4230957 -0.08056641 C14.05237975 -0.08855192 14.05237975 -0.08855192 15.71457863 -0.09669876 C21.46433429 -0.12339624 27.2140685 -0.1427817 32.96386719 -0.15722656 C37.71178472 -0.1705609 42.45927199 -0.19840985 47.20703125 -0.23925781 C52.95111515 -0.28867066 58.6948091 -0.31335816 64.43909645 -0.32045364 C66.62187777 -0.32714982 68.80465094 -0.34232903 70.98731041 -0.36634445 C74.0505905 -0.39812554 77.11237815 -0.39801302 80.17578125 -0.390625 C81.06704712 -0.40703033 81.95831299 -0.42343567 82.87658691 -0.44033813 C90.29555973 -0.36755603 96.85558314 1.88857548 102.36358166 7.00699806 C108.19724756 13.36108122 108.84606006 19.2655374 108.73950195 27.72802734 C108.21462889 33.27043693 106.39449019 37.20975785 102.41137695 41.19287109 C102.93086914 41.54478516 103.45036133 41.89669922 103.9855957 42.25927734 C109.71383212 46.31457226 114.12802601 50.34281828 116.41137695 57.19287109 C117.02293497 65.0829721 117.59361121 72.76518275 112.41137695 79.19287109 C109.91400415 81.76427668 107.36185821 84.14924772 104.41137695 86.19287109 C103.75137695 86.19287109 103.09137695 86.19287109 102.41137695 86.19287109 C102.76071289 86.73556641 103.11004883 87.27826172 103.4699707 87.83740234 C103.92500977 88.55283203 104.38004883 89.26826172 104.84887695 90.00537109 C105.30133789 90.71306641 105.75379883 91.42076172 106.2199707 92.14990234 C109.79144424 98.27410123 109.4806427 106.91580811 107.7980957 113.64599609 C105.10333614 119.67655934 100.03773626 124.45369877 94.11450195 127.29443359 C92.24121732 128.0052189 90.32858243 128.61086229 88.41137695 129.19287109 C89.40137695 130.73974609 89.40137695 130.73974609 90.41137695 132.31787109 C93.67135747 138.8611177 93.5847267 146.62414053 91.78637695 153.62646484 C89.18143321 159.59225119 84.00734204 164.46580578 78.17334366 167.26775074 C75.00134291 168.33021194 72.46598392 168.44176485 69.12225342 168.44010925 C67.85470215 168.44430374 66.58715088 168.44849823 65.28118896 168.45281982 C63.8841545 168.44733703 62.48712081 168.44165408 61.09008789 168.43579102 C59.61315832 168.43686439 58.13622917 168.43880389 56.65930176 168.44154358 C52.65548442 168.44638458 48.6517788 168.43874679 44.64797497 168.42859054 C40.46040665 168.4198033 36.27284177 168.42156757 32.08526611 168.42195129 C25.05755748 168.42101531 18.02989208 168.41233807 11.00219727 168.39868164 C2.86724059 168.38293239 -5.26766881 168.37768441 -13.40263963 168.37841719 C-21.22214558 168.37902652 -29.04163608 168.37393142 -36.86113739 168.36562538 C-40.19286978 168.36208723 -43.5245967 168.36026139 -46.85633087 168.35973167 C-50.77316023 168.35873056 -54.68994958 168.35265307 -58.60676575 168.34256554 C-60.04797369 168.33963384 -61.48918623 168.33841651 -62.93039703 168.33899307 C-64.88941369 168.33948041 -66.84842866 168.33323459 -68.80743408 168.32658386 C-69.90616978 168.32490802 -71.00490547 168.32323217 -72.13693619 168.32150555 C-74.58862305 168.19287109 -74.58862305 168.19287109 -75.58862305 167.19287109 C-75.71362305 164.19287109 -75.71362305 164.19287109 -75.58862305 161.19287109 C-73.46764427 159.07189232 -68.69044502 160.00664892 -65.75439453 159.98754883 C-64.8276593 159.97764923 -63.90092407 159.96774963 -62.94610596 159.95755005 C-59.86733601 159.92583408 -56.7885506 159.90113789 -53.7097168 159.87646484 C-51.58121834 159.85590402 -49.45272404 159.8349078 -47.32423401 159.81349182 C-41.71004601 159.75818105 -36.09582061 159.70881163 -30.48156738 159.66064453 C-24.75745295 159.61049508 -19.03339311 159.55477488 -13.30932617 159.49951172 C-2.06913838 159.39182007 9.17109671 159.29039971 20.41137695 159.19287109 C20.12879028 158.65670166 19.84620361 158.12053223 19.55505371 157.56811523 C19.18859741 156.85776123 18.82214111 156.14740723 18.44458008 155.41552734 C18.07949341 154.71435791 17.71440674 154.01318848 17.33825684 153.29077148 C14.8775738 147.72126026 15.44787059 140.38817281 17.17700195 134.65380859 C18.96475168 130.8654818 21.20986004 127.93702844 24.41137695 125.19287109 C23.30962159 122.71392153 22.14508395 120.8683265 20.41137695 118.75537109 C15.34401885 112.26281852 15.68450836 105.11663608 16.41137695 97.19287109 C18.03566948 91.61759673 21.58087966 87.4489792 25.41137695 83.19287109 C24.85192383 83.55380859 24.2924707 83.91474609 23.71606445 84.28662109 C15.83924204 88.84555368 7.86854902 89.86695274 -1.0144043 87.56396484 C-6.99139884 84.97586818 -11.89590649 79.77150513 -14.66455078 73.91821289 C-15.6749145 70.93837401 -15.83234937 68.62893241 -15.8190918 65.48974609 C-15.8171582 64.42755859 -15.81522461 63.36537109 -15.81323242 62.27099609 C-15.80098633 61.17271484 -15.78874023 60.07443359 -15.77612305 58.94287109 C-15.77547852 57.82912109 -15.77483398 56.71537109 -15.77416992 55.56787109 C-15.72897981 47.33322785 -15.72897981 47.33322785 -14.58862305 46.19287109 C-11.58862305 46.06787109 -11.58862305 46.06787109 -8.58862305 46.19287109 C-6.78805372 47.99344042 -7.38598293 50.46451371 -7.29858398 52.86987305 C-7.13458306 65.3530942 -7.13458306 65.3530942 -1.02612305 75.69287109 C3.80266288 78.66443166 7.79581365 78.80532116 13.41137695 78.19287109 C18.39520868 75.83687791 20.43365264 73.29331801 22.41137695 68.19287109 C23.6022105 63.63870939 23.58963626 59.16484946 23.61450195 54.48974609 C23.62020203 53.65252014 23.6259021 52.81529419 23.6317749 51.95269775 C23.6411977 50.18429822 23.64774804 48.41588135 23.65161133 46.64746094 C23.66129465 43.96566488 23.69233433 41.28464311 23.72387695 38.60302734 C23.73041034 36.87777144 23.73565949 35.15251009 23.73950195 33.42724609 C23.75802216 32.24083527 23.75802216 32.24083527 23.7769165 31.03045654 C23.75082656 24.38872696 22.78739621 17.76689195 18.16137695 12.75537109 C12.39172109 9.47715753 6.86522657 8.87897757 0.34887695 9.31787109 C-0.31305664 9.34107422 -0.97499023 9.36427734 -1.65698242 9.38818359 C-18.02825089 10.36648535 -33.69906128 18.52626628 -48.60351562 24.72216797 C-51.58262751 25.95729924 -54.5675608 27.17740022 -57.5534668 28.39599609 C-58.45773911 28.7771759 -59.36201141 29.15835571 -60.29368591 29.55108643 C-65.30137552 31.58564 -69.17241619 32.7460693 -74.58862305 32.19287109 C-75.58862305 31.19287109 -75.58862305 31.19287109 -75.65112305 28.13037109 C-75.63049805 27.16099609 -75.60987305 26.19162109 -75.58862305 25.19287109 C-67.13280251 20.60581503 -58.25230455 17.13342539 -49.31298828 13.62670898 C-46.78940519 12.63558757 -44.26995698 11.63446433 -41.75073242 10.63232422 C-27.99690086 5.19327595 -14.94548366 0.07063225 0 0 Z M27.41137695 8.19287109 C27.69142578 8.69681396 27.97147461 9.20075684 28.26000977 9.7199707 C31.63050276 16.39613952 32.06327058 22.35725903 32.16137695 29.75537109 C32.19102539 30.85945313 32.22067383 31.96353516 32.2512207 33.10107422 C32.32128138 35.79841039 32.37429164 38.49491436 32.41137695 41.19287109 C39.65250836 41.12560277 46.89311121 41.03569168 54.13378906 40.93041992 C56.59433702 40.89727197 59.05495916 40.86920887 61.515625 40.84643555 C65.06322693 40.81270354 68.61015519 40.76037681 72.1574707 40.70458984 C73.24845566 40.69819992 74.33944061 40.69181 75.46348572 40.68522644 C85.96427076 40.49658572 85.96427076 40.49658572 95.03147888 35.74150085 C99.09202864 31.00051839 99.77219057 27.79583616 99.68481445 21.73193359 C99.27503187 17.92680963 97.99681614 15.97719021 95.41137695 13.19287109 C89.81725938 9.07019203 84.5141346 8.06397096 77.703125 8.0793457 C76.02194832 8.079459 76.02194832 8.079459 74.30680847 8.07957458 C72.50812065 8.08731651 72.50812065 8.08731651 70.6730957 8.09521484 C69.43719193 8.09662979 68.20128815 8.09804474 66.92793274 8.09950256 C63.6547935 8.10414491 60.38170408 8.11311798 57.10858154 8.12420654 C53.76355447 8.13446705 50.41852522 8.13892479 47.07348633 8.14404297 C40.51943045 8.15506202 33.96540778 8.17179274 27.41137695 8.19287109 Z M32.41137695 51.19287109 C32.26699352 52.53604638 32.18446079 53.88601976 32.13012695 55.23583984 C32.09274414 56.06277344 32.05536133 56.88970703 32.0168457 57.74169922 C31.98204102 58.61246094 31.94723633 59.48322266 31.91137695 60.38037109 C31.69275907 65.72841226 31.44599415 70.92494522 30.41137695 76.19287109 C35.45841471 79.50949591 39.63510015 80.30793631 45.60961914 80.35400391 C46.62127136 80.36361145 47.63292358 80.37321899 48.67523193 80.38311768 C49.75862854 80.38736755 50.84202515 80.39161743 51.95825195 80.39599609 C53.08402649 80.40169617 54.20980103 80.40739624 55.36968994 80.41326904 C57.75011255 80.42270486 60.13054814 80.42924738 62.51098633 80.43310547 C66.13426779 80.44279857 69.75697881 80.47383118 73.38012695 80.50537109 C75.69783193 80.511903 78.01554095 80.51715273 80.33325195 80.52099609 C81.40855164 80.5333429 82.48385132 80.5456897 83.59173584 80.55841064 C90.25787369 80.53887877 97.797151 80.43090723 103.03216553 75.74078369 C107.09230576 71.00003049 107.77218412 67.79538837 107.68481445 61.73193359 C107.27503187 57.92680963 105.99681614 55.97719021 103.41137695 53.19287109 C98.03303221 49.22920945 92.83823376 48.07624648 86.27319336 48.04760742 C85.27510651 48.04122757 84.27701965 48.03484772 83.24868774 48.02827454 C82.18089081 48.02716171 81.11309387 48.02604889 80.01293945 48.02490234 C78.90461761 48.02157394 77.79629578 48.01824554 76.65438843 48.01481628 C74.31264663 48.00975962 71.97089764 48.00740757 69.62915039 48.00756836 C66.05643782 48.00538336 62.48403487 47.98721808 58.91137695 47.96826172 C56.63273217 47.96532721 54.35408593 47.9633428 52.07543945 47.96240234 C51.01169098 47.95521683 49.9479425 47.94803131 48.85195923 47.94062805 C40.06513995 47.64005937 40.06513995 47.64005937 32.41137695 51.19287109 Z M28.41137695 94.25537109 C24.98421876 99.2890097 24.75369036 103.17179661 25.41137695 109.19287109 C27.75930353 114.06933399 30.6989855 116.59624723 35.41137695 119.19287109 C40.24623573 120.57133952 45.22173466 120.37266723 50.20825195 120.39599609 C51.15645813 120.40169617 52.10466431 120.40739624 53.081604 120.41326904 C55.08539725 120.42269779 57.08920586 120.42924456 59.09301758 120.43310547 C62.1369172 120.44279325 65.1801361 120.47382974 68.22387695 120.50537109 C70.17699797 120.51190381 72.13012379 120.51715322 74.08325195 120.52099609 C75.43371613 120.5395163 75.43371613 120.5395163 76.8114624 120.55841064 C83.07788261 120.53664666 90.14875196 120.10362638 95.03900146 115.74078369 C99.08692448 110.99075262 99.77221755 107.79770819 99.68481445 101.73193359 C99.27503187 97.92680963 97.99681614 95.97719021 95.41137695 93.19287109 C88.59263753 88.16768635 81.95813852 88.02869534 73.83325195 87.98974609 C72.90724182 87.98404602 71.98123169 87.97834595 71.02716064 87.97247314 C69.07044611 87.96304548 67.11371586 87.95649806 65.15698242 87.95263672 C62.18550427 87.94294975 59.2147237 87.91191267 56.2434082 87.88037109 C54.3358602 87.87383826 52.42830728 87.86858889 50.52075195 87.86474609 C49.64231628 87.85239929 48.76388062 87.84005249 47.85882568 87.82733154 C40.74690091 87.85261793 33.27053398 88.54984583 28.41137695 94.25537109 Z M28.41137695 134.25537109 C24.98421876 139.2890097 24.75369036 143.17179661 25.41137695 149.19287109 C27.75930353 154.06933399 30.6989855 156.59624723 35.41137695 159.19287109 C41.54327919 160.77470903 47.87304098 160.41699317 54.16137695 160.44287109 C56.01762695 160.47380859 56.01762695 160.47380859 57.91137695 160.50537109 C69.22099085 160.69928253 69.22099085 160.69928253 79.02368164 155.74047852 C83.09924352 151.01170818 83.77213903 147.7922591 83.68481445 141.73193359 C83.27503187 137.92680963 81.99681614 135.97719021 79.41137695 133.19287109 C71.6122329 127.44516066 63.43923027 127.98256244 54.16137695 127.94287109 C52.97157227 127.92224609 51.78176758 127.90162109 50.5559082 127.88037109 C38.27233412 127.78863035 38.27233412 127.78863035 28.41137695 134.25537109 Z " fill="#253238" transform="translate(163.588623046875,303.80712890625)"/>
<path d="M0 0 C1.59240509 -0.02409439 1.59240509 -0.02409439 3.21697998 -0.04867554 C8.07921761 -0.09309254 12.94131787 -0.1341968 17.80371094 -0.15722656 C20.3682564 -0.17378249 22.93275579 -0.20106728 25.49707031 -0.23925781 C29.19262663 -0.29402443 32.8871003 -0.31590235 36.58300781 -0.33056641 C37.72695007 -0.35323578 38.87089233 -0.37590515 40.04949951 -0.39926147 C48.93216579 -0.3756945 48.93216579 -0.3756945 52.61914062 2.60058594 C55.98415369 6.40647736 56.04025159 8.23178975 56.06503296 13.23944092 C56.07363342 14.52929901 56.08223389 15.8191571 56.09109497 17.14810181 C56.09553036 18.58587606 56.09982871 20.02365075 56.10400391 21.46142578 C56.11190387 22.96920969 56.12017276 24.47699171 56.12878418 25.98477173 C56.15501801 30.94474478 56.17031384 35.90472633 56.18457031 40.86474609 C56.18992956 42.57150529 56.19530707 44.27826442 56.20070267 45.9850235 C56.222334 53.08453515 56.24107078 60.18404451 56.25232506 67.28358078 C56.26856424 77.46121598 56.30173814 87.63846939 56.35872591 97.81596065 C56.39742033 104.97017574 56.41695718 112.1242887 56.42224562 119.2786057 C56.42589999 123.55239362 56.43792972 127.82577445 56.47034836 132.09944916 C56.50042027 136.1214843 56.50674431 140.1428659 56.4949646 144.16498947 C56.49474378 145.63959819 56.50305583 147.11423715 56.52061844 148.5887413 C56.66171408 161.11880145 56.66171408 161.11880145 53.49966431 165.05450439 C49.96380852 167.97544868 48.32052745 168.32398768 43.82226562 168.38574219 C42.76066223 168.40180511 41.69905884 168.41786804 40.60528564 168.43441772 C35.74304802 168.47883472 30.88094776 168.51993898 26.01855469 168.54296875 C23.45400923 168.55952468 20.88950984 168.58680947 18.32519531 168.625 C14.62963899 168.67976662 10.93516532 168.70164454 7.23925781 168.71630859 C5.52334442 168.75031265 5.52334442 168.75031265 3.77276611 168.78500366 C-5.10990017 168.76143669 -5.10990017 168.76143669 -8.796875 165.78515625 C-12.16188806 161.97926483 -12.21798596 160.15395244 -12.24276733 155.14630127 C-12.2513678 153.85644318 -12.25996826 152.56658508 -12.26882935 151.23764038 C-12.27326474 149.79986613 -12.27756308 148.36209144 -12.28173828 146.92431641 C-12.28963825 145.41653249 -12.29790713 143.90875048 -12.30651855 142.40097046 C-12.33275238 137.44099741 -12.34804822 132.48101586 -12.36230469 127.52099609 C-12.36766394 125.8142369 -12.37304144 124.10747777 -12.37843704 122.40071869 C-12.40006837 115.30120704 -12.41880515 108.20169768 -12.43005943 101.10216141 C-12.44629862 90.92452621 -12.47947251 80.7472728 -12.53646028 70.56978154 C-12.5751547 63.41556645 -12.59469156 56.26145349 -12.59998 49.10713649 C-12.60363437 44.83334857 -12.6156641 40.55996773 -12.64808273 36.28629303 C-12.67815465 32.26425789 -12.68447868 28.24287629 -12.67269897 24.22075272 C-12.67247816 22.74614399 -12.6807902 21.27150503 -12.69835281 19.79700089 C-12.83944846 7.26694074 -12.83944846 7.26694074 -9.67739868 3.33123779 C-6.1415429 0.41029351 -4.49826183 0.0617545 0 0 Z M-4.08886719 10.19287109 C-4.39413447 12.86369427 -4.39413447 12.86369427 -4.34283447 16.03857422 C-4.34847412 17.28372803 -4.35411377 18.52888184 -4.35992432 19.81176758 C-4.35603536 21.19921933 -4.351939 22.58667051 -4.34765625 23.97412109 C-4.35036507 25.42928238 -4.35392539 26.8844423 -4.35827637 28.33959961 C-4.36741566 32.29820092 -4.36384981 36.25669832 -4.3575182 40.21530151 C-4.35246615 44.35170783 -4.35714743 48.48810506 -4.36029053 52.62451172 C-4.3639325 59.57179365 -4.35912503 66.51903311 -4.34960938 73.46630859 C-4.33872437 81.50634414 -4.34224979 89.54627826 -4.35326219 97.58631134 C-4.36232849 104.48060222 -4.36362356 111.3748625 -4.35838485 118.26915741 C-4.35526152 122.39063683 -4.3548657 126.51206854 -4.36145782 130.63354492 C-4.36722115 134.50768803 -4.36325312 138.38169997 -4.35166931 142.25582886 C-4.34901727 143.68048891 -4.34979705 145.10515994 -4.35419464 146.52981567 C-4.35962988 148.46892919 -4.3516172 150.40806673 -4.34283447 152.34716797 C-4.34208042 153.43412964 -4.34132637 154.52109131 -4.34054947 155.64099121 C-4.34479989 158.35979843 -4.34479989 158.35979843 -2.08886719 160.19287109 C0.03843007 160.49850377 0.03843007 160.49850377 2.51269531 160.45166016 C3.46708496 160.45796448 4.42147461 160.4642688 5.40478516 160.47076416 C6.43812988 160.4667157 7.47147461 160.46266724 8.53613281 160.45849609 C10.12288818 160.46136627 10.12288818 160.46136627 11.74169922 160.46429443 C13.98112221 160.46565712 16.22055307 160.46195492 18.45996094 160.45361328 C21.89698959 160.44291512 25.33349551 160.45350597 28.77050781 160.46630859 C30.94238397 160.46498701 33.1142598 160.46242465 35.28613281 160.45849609 C36.31947754 160.46254456 37.35282227 160.46659302 38.41748047 160.47076416 C39.84906494 160.46130768 39.84906494 160.46130768 41.30957031 160.45166016 C42.15181152 160.45006897 42.99405273 160.44847778 43.86181641 160.44683838 C46.13559678 160.37825626 46.13559678 160.37825626 47.91113281 158.19287109 C48.2164001 155.52204792 48.2164001 155.52204792 48.1651001 152.34716797 C48.17355957 150.47943726 48.17355957 150.47943726 48.18218994 148.57397461 C48.17830098 147.18652286 48.17420462 145.79907168 48.16992188 144.41162109 C48.17263069 142.9564598 48.17619101 141.50129988 48.18054199 140.04614258 C48.18968129 136.08754126 48.18611544 132.12904387 48.17978382 128.17044067 C48.17473177 124.03403435 48.17941305 119.89763713 48.18255615 115.76123047 C48.18619813 108.81394854 48.18139065 101.86670908 48.171875 94.91943359 C48.16099 86.87939805 48.16451541 78.83946393 48.17552781 70.79943085 C48.18459412 63.90513997 48.18588919 57.01087969 48.18065047 50.11658478 C48.17752715 45.99510535 48.17713133 41.87367365 48.18372345 37.75219727 C48.18948677 33.87805415 48.18551875 30.00404222 48.17393494 26.12991333 C48.1712829 24.70525328 48.17206267 23.28058225 48.17646027 21.85592651 C48.1818955 19.916813 48.17388283 17.97767546 48.1651001 16.03857422 C48.16396902 14.40813171 48.16396902 14.40813171 48.16281509 12.74475098 C48.16706552 10.02594376 48.16706552 10.02594376 45.91113281 8.19287109 C43.78383555 7.88723841 43.78383555 7.88723841 41.30957031 7.93408203 C40.35518066 7.92777771 39.40079102 7.92147339 38.41748047 7.91497803 C37.38413574 7.91902649 36.35079102 7.92307495 35.28613281 7.92724609 C33.69937744 7.92437592 33.69937744 7.92437592 32.08056641 7.92144775 C29.84114342 7.92008507 27.60171255 7.92378727 25.36230469 7.93212891 C21.92527604 7.94282707 18.48877011 7.93223622 15.05175781 7.91943359 C12.87988165 7.92075517 10.70800582 7.92331753 8.53613281 7.92724609 C7.50278809 7.92319763 6.46944336 7.91914917 5.40478516 7.91497803 C4.45039551 7.92128235 3.49600586 7.92758667 2.51269531 7.93408203 C1.2493335 7.93646881 1.2493335 7.93646881 -0.03955078 7.93890381 C-2.31333115 8.00748592 -2.31333115 8.00748592 -4.08886719 10.19287109 Z " fill="#263238" transform="translate(24.0888671875,315.80712890625)"/>
<path d="M0 0 C1.12742615 -0.00281982 2.25485229 -0.00563965 3.41644287 -0.00854492 C4.66427551 -0.00652069 5.91210815 -0.00449646 7.19775391 -0.00241089 C8.50327209 -0.00416321 9.80879028 -0.00591553 11.15386963 -0.00772095 C14.7446815 -0.01229497 18.33546476 -0.01050585 21.92627716 -0.00734186 C25.67611267 -0.0048181 29.42594565 -0.00715584 33.17578125 -0.00872803 C39.47412559 -0.01054968 45.77245822 -0.00814354 52.07080078 -0.00338745 C59.36270524 0.00205516 66.65458174 0.0002925 73.94648552 -0.00521386 C80.19615354 -0.00974512 86.44581312 -0.01039547 92.69548225 -0.00777519 C96.43295882 -0.00621249 100.17042222 -0.00601846 103.90789795 -0.00931168 C108.07224191 -0.01272441 112.23653732 -0.00800044 116.40087891 -0.00241089 C117.64871155 -0.00443512 118.89654419 -0.00645935 120.18218994 -0.00854492 C121.87332916 -0.00431519 121.87332916 -0.00431519 123.59863281 0 C124.58457428 0.00037703 125.57051575 0.00075405 126.58633423 0.0011425 C128.79931641 0.12698364 128.79931641 0.12698364 129.79931641 1.12698364 C129.92431641 4.12698364 129.92431641 4.12698364 129.79931641 7.12698364 C128.09855866 8.82774138 125.92548169 8.25307749 123.59863281 8.25396729 C122.47120667 8.25678711 121.34378052 8.25960693 120.18218994 8.26251221 C118.9343573 8.26048798 117.68652466 8.25846375 116.40087891 8.25637817 C115.09536072 8.25813049 113.78984253 8.25988281 112.44476318 8.26168823 C108.85395131 8.26626226 105.26316805 8.26447314 101.67235565 8.26130915 C97.92252014 8.25878538 94.17268716 8.26112313 90.42285156 8.26269531 C84.12450722 8.26451696 77.82617459 8.26211082 71.52783203 8.25735474 C64.23592757 8.25191212 56.94405107 8.25367478 49.65214729 8.25918114 C43.40247927 8.26371241 37.15281969 8.26436275 30.90315056 8.26174247 C27.165674 8.26017977 23.42821059 8.25998574 19.69073486 8.26327896 C15.52639091 8.2666917 11.3620955 8.26196772 7.19775391 8.25637817 C5.94992126 8.2584024 4.70208862 8.26042664 3.41644287 8.26251221 C1.72530365 8.25828247 1.72530365 8.25828247 0 8.25396729 C-0.98594147 8.25359026 -1.97188293 8.25321323 -2.98770142 8.25282478 C-5.20068359 8.12698364 -5.20068359 8.12698364 -6.20068359 7.12698364 C-6.32568359 4.12698364 -6.32568359 4.12698364 -6.20068359 1.12698364 C-4.49992585 -0.5737741 -2.32684887 0.00088979 0 0 Z " fill="#263137" transform="translate(328.20068359375,419.8730163574219)"/>
<path d="M0 0 C1.12742615 -0.00281982 2.25485229 -0.00563965 3.41644287 -0.00854492 C4.66427551 -0.00652069 5.91210815 -0.00449646 7.19775391 -0.00241089 C8.50327209 -0.00416321 9.80879028 -0.00591553 11.15386963 -0.00772095 C14.7446815 -0.01229497 18.33546476 -0.01050585 21.92627716 -0.00734186 C25.67611267 -0.0048181 29.42594565 -0.00715584 33.17578125 -0.00872803 C39.47412559 -0.01054968 45.77245822 -0.00814354 52.07080078 -0.00338745 C59.36270524 0.00205516 66.65458174 0.0002925 73.94648552 -0.00521386 C80.19615354 -0.00974512 86.44581312 -0.01039547 92.69548225 -0.00777519 C96.43295882 -0.00621249 100.17042222 -0.00601846 103.90789795 -0.00931168 C108.07224191 -0.01272441 112.23653732 -0.00800044 116.40087891 -0.00241089 C117.64871155 -0.00443512 118.89654419 -0.00645935 120.18218994 -0.00854492 C121.87332916 -0.00431519 121.87332916 -0.00431519 123.59863281 0 C124.58457428 0.00037703 125.57051575 0.00075405 126.58633423 0.0011425 C128.79931641 0.12698364 128.79931641 0.12698364 129.79931641 1.12698364 C129.92431641 4.12698364 129.92431641 4.12698364 129.79931641 7.12698364 C128.09855866 8.82774138 125.92548169 8.25307749 123.59863281 8.25396729 C122.47120667 8.25678711 121.34378052 8.25960693 120.18218994 8.26251221 C118.9343573 8.26048798 117.68652466 8.25846375 116.40087891 8.25637817 C115.09536072 8.25813049 113.78984253 8.25988281 112.44476318 8.26168823 C108.85395131 8.26626226 105.26316805 8.26447314 101.67235565 8.26130915 C97.92252014 8.25878538 94.17268716 8.26112313 90.42285156 8.26269531 C84.12450722 8.26451696 77.82617459 8.26211082 71.52783203 8.25735474 C64.23592757 8.25191212 56.94405107 8.25367478 49.65214729 8.25918114 C43.40247927 8.26371241 37.15281969 8.26436275 30.90315056 8.26174247 C27.165674 8.26017977 23.42821059 8.25998574 19.69073486 8.26327896 C15.52639091 8.2666917 11.3620955 8.26196772 7.19775391 8.25637817 C5.94992126 8.2584024 4.70208862 8.26042664 3.41644287 8.26251221 C1.72530365 8.25828247 1.72530365 8.25828247 0 8.25396729 C-0.98594147 8.25359026 -1.97188293 8.25321323 -2.98770142 8.25282478 C-5.20068359 8.12698364 -5.20068359 8.12698364 -6.20068359 7.12698364 C-6.32568359 4.12698364 -6.32568359 4.12698364 -6.20068359 1.12698364 C-4.49992585 -0.5737741 -2.32684887 0.00088979 0 0 Z " fill="#263137" transform="translate(42.20068359375,159.87301635742188)"/>
<path d="M0 0 C1.31157326 -0.00956978 1.31157326 -0.00956978 2.64964294 -0.01933289 C4.07615929 -0.02100212 4.07615929 -0.02100212 5.53149414 -0.02270508 C6.98719566 -0.02769768 6.98719566 -0.02769768 8.4723053 -0.03279114 C10.52938359 -0.03786463 12.58647015 -0.04019933 14.64355469 -0.04003906 C17.79969783 -0.04222459 20.9554911 -0.06037324 24.11157227 -0.0793457 C26.10571169 -0.08227966 28.09985278 -0.08426444 30.09399414 -0.08520508 C31.0429808 -0.09239059 31.99196747 -0.09957611 32.9697113 -0.10697937 C33.84724564 -0.10390274 34.72477997 -0.10082611 35.62890625 -0.09765625 C36.4031041 -0.09908127 37.17730194 -0.10050629 37.97496033 -0.10197449 C39.87915039 0.14526367 39.87915039 0.14526367 41.87915039 2.14526367 C42.13311768 4.04272461 42.13311768 4.04272461 42.13793945 6.37963867 C42.14424377 7.25394531 42.1505481 8.12825195 42.15704346 9.02905273 C42.152995 9.97490234 42.14894653 10.92075195 42.14477539 11.89526367 C42.14764557 13.34884277 42.14764557 13.34884277 42.15057373 14.83178711 C42.15193618 16.88289652 42.14823557 18.93401453 42.13989258 20.98510742 C42.12919398 24.13243906 42.13978593 27.27919987 42.15258789 30.42651367 C42.15126631 32.41609827 42.14870394 34.40568251 42.14477539 36.39526367 C42.14882385 37.34111328 42.15287231 38.28696289 42.15704346 39.26147461 C42.15073914 40.13578125 42.14443481 41.01008789 42.13793945 41.91088867 C42.13634827 42.68207031 42.13475708 43.45325195 42.13311768 44.24780273 C41.87915039 46.14526367 41.87915039 46.14526367 39.87915039 48.14526367 C35.32359484 47.58970812 35.32359484 47.58970812 33.87915039 46.14526367 C33.79053047 43.33362987 33.76392684 40.54668112 33.78149414 37.73510742 C33.78290909 36.89307266 33.78432404 36.0510379 33.78578186 35.18348694 C33.79139776 32.48321032 33.80395291 29.7830154 33.81665039 27.08276367 C33.82166334 25.25659299 33.82622661 23.43042102 33.83032227 21.60424805 C33.84137235 17.11788825 33.8586476 12.63158983 33.87915039 8.14526367 C32.16816162 8.16097412 32.16816162 8.16097412 30.42260742 8.17700195 C26.19965745 8.21314084 21.9767212 8.23614179 17.75366211 8.25512695 C15.92421166 8.26519851 14.09477736 8.27885643 12.26538086 8.29614258 C9.63920105 8.32034044 7.01323364 8.33173499 4.38696289 8.34057617 C3.15564133 8.35606003 3.15564133 8.35606003 1.89944458 8.37185669 C-0.10874103 8.37225551 -2.11640343 8.26775907 -4.12084961 8.14526367 C-4.78084961 7.48526367 -5.44084961 6.82526367 -6.12084961 6.14526367 C-5.49946231 1.04988779 -5.05470525 0.02491267 0 0 Z " fill="#263238" transform="translate(386.120849609375,139.854736328125)"/>
<path d="M0 0 C3 0.125 3 0.125 4 1.125 C4.07313567 3.65549402 4.09247527 6.15804837 4.0625 8.6875 C4.05798828 9.39841797 4.05347656 10.10933594 4.04882812 10.84179688 C4.03700864 12.60290013 4.01907263 14.36396036 4 16.125 C5.07121094 16.11339844 6.14242188 16.10179688 7.24609375 16.08984375 C8.64322743 16.08046701 10.04036299 16.07136669 11.4375 16.0625 C12.14455078 16.05412109 12.85160156 16.04574219 13.58007812 16.03710938 C15.38693559 16.02846412 17.19387603 16.07279989 19 16.125 C20 17.125 20 17.125 20.125 20.125 C20 23.125 20 23.125 19 24.125 C16.46950598 24.19813567 13.96695163 24.21747527 11.4375 24.1875 C10.72658203 24.18298828 10.01566406 24.17847656 9.28320312 24.17382812 C7.52209987 24.16200864 5.76103964 24.14407263 4 24.125 C4.01160156 25.19621094 4.02320313 26.26742187 4.03515625 27.37109375 C4.04453299 28.76822743 4.05363331 30.16536299 4.0625 31.5625 C4.07087891 32.26955078 4.07925781 32.97660156 4.08789062 33.70507812 C4.09653588 35.51193559 4.05220011 37.31887603 4 39.125 C3 40.125 3 40.125 0 40.25 C-3 40.125 -3 40.125 -4 39.125 C-4.07313567 36.59450598 -4.09247527 34.09195163 -4.0625 31.5625 C-4.05798828 30.85158203 -4.05347656 30.14066406 -4.04882812 29.40820312 C-4.03700864 27.64709987 -4.01907263 25.88603964 -4 24.125 C-5.60681641 24.14240234 -5.60681641 24.14240234 -7.24609375 24.16015625 C-8.64322743 24.16953299 -10.04036299 24.17863331 -11.4375 24.1875 C-12.14455078 24.19587891 -12.85160156 24.20425781 -13.58007812 24.21289062 C-15.38693559 24.22153588 -17.19387603 24.17720011 -19 24.125 C-20 23.125 -20 23.125 -20.125 20.125 C-20 17.125 -20 17.125 -19 16.125 C-16.46950598 16.05186433 -13.96695163 16.03252473 -11.4375 16.0625 C-10.72658203 16.06701172 -10.01566406 16.07152344 -9.28320312 16.07617188 C-7.52209987 16.08799136 -5.76103964 16.10592737 -4 16.125 C-4.01160156 15.05378906 -4.02320313 13.98257813 -4.03515625 12.87890625 C-4.04453299 11.48177257 -4.05363331 10.08463701 -4.0625 8.6875 C-4.07506836 7.62692383 -4.07506836 7.62692383 -4.08789062 6.54492188 C-4.09653588 4.73806441 -4.05220011 2.93112397 -4 1.125 C-3 0.125 -3 0.125 0 0 Z " fill="#263137" transform="translate(488,67.875)"/>
<path d="M0 0 C3 0.125 3 0.125 4 1.125 C4.07313567 3.65549402 4.09247527 6.15804837 4.0625 8.6875 C4.05798828 9.39841797 4.05347656 10.10933594 4.04882812 10.84179688 C4.03700864 12.60290013 4.01907263 14.36396036 4 16.125 C5.07121094 16.11339844 6.14242188 16.10179687 7.24609375 16.08984375 C8.64322743 16.08046701 10.04036299 16.07136669 11.4375 16.0625 C12.14455078 16.05412109 12.85160156 16.04574219 13.58007812 16.03710938 C15.38693559 16.02846412 17.19387603 16.07279989 19 16.125 C20 17.125 20 17.125 20.125 20.125 C20 23.125 20 23.125 19 24.125 C16.46950598 24.19813567 13.96695163 24.21747527 11.4375 24.1875 C10.72658203 24.18298828 10.01566406 24.17847656 9.28320312 24.17382812 C7.52209987 24.16200864 5.76103964 24.14407263 4 24.125 C4.01160156 25.19621094 4.02320313 26.26742187 4.03515625 27.37109375 C4.04453299 28.76822743 4.05363331 30.16536299 4.0625 31.5625 C4.07087891 32.26955078 4.07925781 32.97660156 4.08789062 33.70507812 C4.09653588 35.51193559 4.05220011 37.31887603 4 39.125 C3 40.125 3 40.125 0 40.25 C-3 40.125 -3 40.125 -4 39.125 C-4.07313567 36.59450598 -4.09247527 34.09195163 -4.0625 31.5625 C-4.05798828 30.85158203 -4.05347656 30.14066406 -4.04882812 29.40820312 C-4.03700864 27.64709987 -4.01907263 25.88603964 -4 24.125 C-5.60681641 24.14240234 -5.60681641 24.14240234 -7.24609375 24.16015625 C-8.64322743 24.16953299 -10.04036299 24.17863331 -11.4375 24.1875 C-12.14455078 24.19587891 -12.85160156 24.20425781 -13.58007812 24.21289062 C-15.38693559 24.22153588 -17.19387603 24.17720011 -19 24.125 C-20 23.125 -20 23.125 -20.125 20.125 C-20 17.125 -20 17.125 -19 16.125 C-16.46950598 16.05186433 -13.96695163 16.03252473 -11.4375 16.0625 C-10.72658203 16.06701172 -10.01566406 16.07152344 -9.28320312 16.07617188 C-7.52209987 16.08799136 -5.76103964 16.10592737 -4 16.125 C-4.01160156 15.05378906 -4.02320313 13.98257813 -4.03515625 12.87890625 C-4.04453299 11.48177257 -4.05363331 10.08463701 -4.0625 8.6875 C-4.07506836 7.62692383 -4.07506836 7.62692383 -4.08789062 6.54492188 C-4.09653588 4.73806441 -4.05220011 2.93112397 -4 1.125 C-3 0.125 -3 0.125 0 0 Z " fill="#263137" transform="translate(448,27.875)"/>
<path d="M0 0 C0.98484375 -0.00128906 1.9696875 -0.00257813 2.984375 -0.00390625 C4.02078125 -0.00003906 5.0571875 0.00382812 6.125 0.0078125 C7.67960937 0.00201172 7.67960937 0.00201172 9.265625 -0.00390625 C10.25046875 -0.00261719 11.2353125 -0.00132812 12.25 0 C13.16007812 0.00112793 14.07015625 0.00225586 15.0078125 0.00341797 C17.125 0.1328125 17.125 0.1328125 18.125 1.1328125 C18.25 4.1328125 18.25 4.1328125 18.125 7.1328125 C16.47105883 8.78675367 14.52184587 8.26280933 12.25 8.265625 C11.26515625 8.26691406 10.2803125 8.26820313 9.265625 8.26953125 C8.22921875 8.26566406 7.1928125 8.26179688 6.125 8.2578125 C4.57039063 8.26361328 4.57039063 8.26361328 2.984375 8.26953125 C1.99953125 8.26824219 1.0146875 8.26695312 0 8.265625 C-0.91007812 8.26449707 -1.82015625 8.26336914 -2.7578125 8.26220703 C-4.875 8.1328125 -4.875 8.1328125 -5.875 7.1328125 C-6 4.1328125 -6 4.1328125 -5.875 1.1328125 C-4.22105883 -0.52112867 -2.27184587 0.00281567 0 0 Z " fill="#263137" transform="translate(471.875,419.8671875)"/>
<path d="M0 0 C0.98484375 -0.00128906 1.9696875 -0.00257813 2.984375 -0.00390625 C4.02078125 -0.00003906 5.0571875 0.00382813 6.125 0.0078125 C7.67960937 0.00201172 7.67960937 0.00201172 9.265625 -0.00390625 C10.25046875 -0.00261719 11.2353125 -0.00132812 12.25 0 C13.16007812 0.00112793 14.07015625 0.00225586 15.0078125 0.00341797 C17.125 0.1328125 17.125 0.1328125 18.125 1.1328125 C18.25 4.1328125 18.25 4.1328125 18.125 7.1328125 C16.47105883 8.78675367 14.52184587 8.26280933 12.25 8.265625 C11.26515625 8.26691406 10.2803125 8.26820313 9.265625 8.26953125 C8.22921875 8.26566406 7.1928125 8.26179687 6.125 8.2578125 C4.57039062 8.26361328 4.57039062 8.26361328 2.984375 8.26953125 C1.99953125 8.26824219 1.0146875 8.26695312 0 8.265625 C-0.91007813 8.26449707 -1.82015625 8.26336914 -2.7578125 8.26220703 C-4.875 8.1328125 -4.875 8.1328125 -5.875 7.1328125 C-6 4.1328125 -6 4.1328125 -5.875 1.1328125 C-4.22105883 -0.52112867 -2.27184587 0.00281567 0 0 Z " fill="#263137" transform="translate(9.875,159.8671875)"/>
</svg>
