<svg version="1.1" id="Layer_1" xmlns="http://www.w3.org/2000/svg" xmlns:xlink="http://www.w3.org/1999/xlink" x="0px" y="0px"
	 width="100%" viewBox="0 0 512 512" enable-background="new 0 0 512 512" xml:space="preserve">
<path fill="#3B97D3" opacity="1.000000" stroke="none" 
	d="
M1.000000,98.000000 
	C1.000000,68.979103 1.000000,39.958210 1.252309,10.790842 
	C3.538005,8.412630 5.586801,6.194646 7.597443,3.942600 
	C8.439958,2.998930 9.201593,1.983050 10.000000,1.000000 
	C174.354233,1.000000 338.708466,1.000000 503.207825,1.251315 
	C505.586090,3.537380 507.805511,5.587544 510.059021,7.599498 
	C511.002045,8.441444 512.017456,9.202290 513.000000,9.999998 
	C513.000000,39.020893 513.000000,68.041786 512.743835,97.211906 
	C507.540039,105.067436 500.491150,107.164619 491.464081,107.152550 
	C333.874725,106.941742 176.284958,106.981445 18.695347,107.063568 
	C11.792206,107.067169 6.651085,104.610161 2.900859,98.907425 
	C2.570708,98.405388 1.647665,98.293243 1.000000,98.000000 
M443.500000,45.052654 
	C451.980103,45.041763 460.462677,45.149685 468.939362,44.973751 
	C473.734222,44.874222 477.161346,41.524918 477.700378,37.005909 
	C478.179840,32.986488 475.339600,29.088541 470.892914,27.857677 
	C469.468292,27.463333 467.954163,27.205450 466.480469,27.203142 
	C441.538818,27.164062 416.596893,27.124281 391.655487,27.207880 
	C384.647797,27.231369 380.849487,30.617258 380.881042,36.264137 
	C380.914307,42.218655 384.299561,45.030758 391.618896,45.042477 
	C408.579224,45.069626 425.539642,45.052174 443.500000,45.052654 
M422.500000,62.931541 
	C411.835297,62.933491 401.170227,62.884640 390.505981,62.956905 
	C384.354431,62.998596 380.995209,66.029297 380.892670,71.356834 
	C380.784790,76.962830 384.139008,80.137573 390.588989,80.150597 
	C416.417480,80.202759 442.246277,80.209129 468.074341,80.095085 
	C470.104706,80.086121 472.472168,79.498390 474.084747,78.344002 
	C477.127502,76.165810 478.477051,72.959633 477.184967,69.114525 
	C475.788940,64.959938 472.794922,62.966560 468.491608,62.957550 
	C453.494446,62.926144 438.497223,62.936722 422.500000,62.931541 
M120.499992,65.954048 
	C125.470680,70.933708 131.311798,72.864799 138.215317,70.947845 
	C147.039261,68.497620 152.862610,58.633224 150.673798,49.896107 
	C148.261322,40.266190 138.755478,34.511986 129.239243,36.921062 
	C116.361610,40.181091 111.966377,53.747631 120.499992,65.954048 
M64.177185,36.166634 
	C61.730762,36.543583 59.181679,36.603134 56.856567,37.355152 
	C48.896763,39.929604 43.653778,49.117130 45.326927,57.151611 
	C47.127415,65.797592 55.584812,72.558472 63.605797,71.763832 
	C73.232468,70.810112 80.020851,63.670937 80.105568,54.411407 
	C80.192924,44.863449 75.604614,39.366825 64.177185,36.166634 
M221.502823,56.803986 
	C221.016190,53.421700 221.121643,49.812328 219.928391,46.701054 
	C216.748123,38.408829 207.122635,34.400570 198.506012,37.281673 
	C190.004211,40.124382 184.840240,49.251999 186.919144,57.762131 
	C188.841705,65.632225 195.814026,71.682304 203.647736,71.722488 
	C211.315994,71.761826 219.737930,66.083794 221.502823,56.803986 
M360.391022,30.114983 
	C351.324677,25.133614 341.767426,26.429445 332.472931,28.703306 
	C328.399750,29.699787 327.226257,33.998322 328.049805,38.181061 
	C328.896179,42.479721 331.708557,44.838989 336.048462,44.974197 
	C341.516113,45.144547 346.993195,45.099594 352.464844,45.033672 
	C361.529602,44.924465 365.083374,38.841721 360.391022,30.114983 
M345.496857,62.929623 
	C342.330841,62.941334 339.156189,62.808685 336.000824,62.998016 
	C331.054688,63.294796 327.989502,66.579453 327.906311,71.378387 
	C327.821625,76.266975 330.731079,79.836464 335.633850,80.039635 
	C342.120331,80.308434 348.633636,80.288284 355.121704,80.037827 
	C359.597839,79.865036 362.773499,76.192833 362.908203,71.785446 
	C363.037537,67.553925 359.354065,63.356964 354.971741,63.022388 
	C352.154175,62.807278 349.309448,62.948120 345.496857,62.929623 
z"/>
<path fill="#3B97D3" opacity="1.000000" stroke="none" 
	d="
M1.000000,248.000000 
	C1.000000,218.979111 1.000000,189.958206 1.254787,160.790558 
	C6.459858,152.940796 13.504938,150.834793 22.536432,150.846970 
	C179.449310,151.058777 336.362579,151.031876 493.275665,150.905350 
	C501.188599,150.898972 507.379272,153.020294 511.586700,159.921371 
	C511.726013,160.149872 512.514221,159.982727 513.000000,160.000000 
	C513.000000,189.020889 513.000000,218.041794 512.748047,247.207581 
	C507.536102,255.017120 500.633179,257.322205 491.484436,257.196106 
	C457.685608,256.730255 423.875885,257.053497 389.827240,256.741425 
	C389.459503,252.918625 389.312805,249.435165 389.214478,245.950333 
	C388.980560,237.661194 385.072601,232.918274 376.787445,231.760117 
	C366.252350,230.287445 355.596985,229.604324 345.109192,227.877914 
	C316.456146,223.161331 288.952026,215.262024 265.013641,197.804749 
	C259.369263,193.688522 253.388809,194.453018 247.843384,198.522629 
	C228.789246,212.505844 207.080246,220.351166 184.221268,224.868912 
	C168.593903,227.957428 152.652390,229.436356 136.876068,231.799866 
	C128.973907,232.983749 125.071274,237.776184 124.766289,245.783920 
	C124.622688,249.554504 124.216782,253.315079 123.465485,257.046417 
	C88.064384,257.008514 53.126644,256.875427 18.191412,257.112305 
	C11.444707,257.158020 6.975748,254.243195 3.126505,249.342728 
	C2.638615,248.721603 1.719387,248.439285 1.000000,248.000000 
M427.500000,195.068634 
	C441.136200,195.063889 454.772919,195.129181 468.408295,195.019547 
	C473.776184,194.976395 477.627014,191.283356 477.711853,186.565125 
	C477.795868,181.889862 473.884521,177.893921 468.717865,177.879547 
	C442.277283,177.805954 415.835480,177.751312 389.397125,178.006134 
	C386.995941,178.029282 383.831818,179.704269 382.374695,181.633759 
	C378.094543,187.301239 382.243958,194.880508 389.583435,194.997574 
	C401.886200,195.193817 414.194214,195.062378 427.500000,195.068634 
M471.536713,213.358734 
	C453.566132,213.222748 435.595673,213.058121 417.624847,212.966614 
	C411.496704,212.935394 407.475525,216.163223 407.083618,221.193115 
	C406.689270,226.254486 410.339661,230.513306 416.525818,230.622345 
	C433.835205,230.927429 451.154938,230.843552 468.467407,230.640076 
	C472.969940,230.587158 476.549805,228.189743 477.483826,223.428238 
	C478.359436,218.964386 476.316772,215.712585 471.536713,213.358734 
M55.665569,187.951401 
	C54.511131,188.600433 53.288170,189.152771 52.213398,189.914246 
	C45.324203,194.795227 43.095387,204.669250 47.142250,212.174194 
	C51.466988,220.194458 60.555523,223.737259 68.737160,220.592117 
	C77.961006,217.046341 82.532997,207.482285 79.483887,198.223572 
	C76.593292,189.446182 64.833824,183.254868 55.665569,187.951401 
M334.255249,178.053787 
	C329.003784,180.413391 327.081757,183.632629 328.056854,188.435532 
	C328.933075,192.751389 332.162201,194.996048 337.768555,195.054749 
	C342.911377,195.108612 348.055969,195.120087 353.198395,195.048508 
	C358.704865,194.971909 362.838715,191.297470 362.915192,186.550323 
	C362.996735,181.488770 359.285980,177.941742 353.530548,177.860046 
	C347.394440,177.772964 341.255341,177.898102 334.255249,178.053787 
z"/>
<path fill="#BDC3C7" opacity="1.000000" stroke="none" 
	d="
M123.929718,257.080200 
	C124.216782,253.315079 124.622688,249.554504 124.766289,245.783920 
	C125.071274,237.776184 128.973907,232.983749 136.876068,231.799866 
	C152.652390,229.436356 168.593903,227.957428 184.221268,224.868912 
	C207.080246,220.351166 228.789246,212.505844 247.843384,198.522629 
	C253.388809,194.453018 259.369263,193.688522 265.013641,197.804749 
	C288.952026,215.262024 316.456146,223.161331 345.109192,227.877914 
	C355.596985,229.604324 366.252350,230.287445 376.787445,231.760117 
	C385.072601,232.918274 388.980560,237.661194 389.214478,245.950333 
	C389.312805,249.435165 389.459503,252.918625 389.796265,257.202332 
	C390.033386,272.309540 390.058411,286.617157 389.894470,301.300934 
	C389.524963,310.407806 389.344391,319.138519 389.098785,328.326416 
	C388.596436,334.195404 388.159119,339.607208 387.551544,345.359558 
	C386.440735,351.394501 385.500153,357.088837 384.373901,363.095398 
	C382.766693,368.958405 381.345215,374.509125 379.709991,380.344482 
	C376.094177,389.729095 372.692108,398.829102 369.158142,408.286438 
	C360.303467,427.448059 348.690460,444.331238 334.678528,459.951019 
	C329.369568,464.880127 324.622955,469.976532 319.341125,474.439606 
	C310.647186,481.785828 301.606750,488.722015 292.442078,496.042358 
	C283.815369,500.978455 275.440735,505.671600 267.129089,510.473785 
	C266.232269,510.991943 265.700897,512.142700 265.000000,513.000000 
	C259.977905,513.000000 254.955811,513.000000 249.793854,512.730835 
	C248.307831,511.609314 246.988068,510.711487 245.611206,509.912048 
	C237.506912,505.206207 229.389328,500.523315 221.103546,495.536865 
	C210.669022,486.911865 200.345551,478.656891 190.176483,470.215973 
	C186.269943,466.973297 182.715256,463.306732 178.874054,459.528687 
	C164.540390,443.924377 153.555695,426.465088 144.286530,407.453583 
	C144.068939,406.262939 144.006851,405.398163 143.669678,404.658844 
	C129.407669,373.388000 123.538017,340.513977 124.731354,306.264160 
	C124.792946,304.496338 124.203331,302.705811 123.953598,300.462463 
	C123.970108,285.692780 123.949921,271.386475 123.929718,257.080200 
M329.167847,423.659027 
	C349.288239,394.622284 360.554993,362.356506 362.690918,327.220428 
	C363.801208,308.955231 363.128082,290.567993 362.895081,272.240479 
	C362.776978,262.950531 356.161835,256.522827 346.494781,254.995300 
	C339.272064,253.854019 332.045013,252.670944 324.894806,251.153336 
	C303.741577,246.663559 283.784149,238.814011 264.506348,229.151154 
	C259.332825,226.557938 254.320526,226.678848 249.195389,229.306259 
	C223.177994,242.644150 195.726059,251.365463 166.693390,255.169434 
	C157.455261,256.379852 151.065292,263.441742 151.094788,272.569580 
	C151.160950,293.043488 151.050293,313.546936 152.111633,333.981201 
	C153.372650,358.260284 160.758911,381.124969 171.985764,402.552795 
	C188.676514,434.409210 212.816818,459.370789 243.535324,478.167999 
	C252.914108,483.907074 261.145874,483.864166 270.498718,478.148682 
	C293.577515,464.045349 312.938141,446.099640 329.167847,423.659027 
z"/>
<path fill="#000000" opacity="1.000000" stroke="none" 
	d="
M513.000000,159.531342 
	C512.514221,159.982727 511.726013,160.149872 511.586700,159.921371 
	C507.379272,153.020294 501.188599,150.898972 493.275665,150.905350 
	C336.362579,151.031876 179.449310,151.058777 22.536432,150.846970 
	C13.504938,150.834793 6.459858,152.940796 1.254787,160.321899 
	C1.000000,139.645767 1.000000,119.291542 1.000000,98.468658 
	C1.647665,98.293243 2.570708,98.405388 2.900859,98.907425 
	C6.651085,104.610161 11.792206,107.067169 18.695347,107.063568 
	C176.284958,106.981445 333.874725,106.941742 491.464081,107.152550 
	C500.491150,107.164619 507.540039,105.067436 512.743835,97.680565 
	C513.000000,118.354225 513.000000,138.708450 513.000000,159.531342 
z"/>
<path fill="#000000" opacity="1.000000" stroke="none" 
	d="
M265.468658,513.000000 
	C265.700897,512.142700 266.232269,510.991943 267.129089,510.473785 
	C275.440735,505.671600 283.815369,500.978455 292.928741,496.115601 
	C357.671417,495.984955 421.657166,495.939087 485.642609,496.062286 
	C494.389771,496.079132 502.750397,489.501587 504.149506,481.623352 
	C506.256958,469.756378 498.900482,459.999786 486.955017,459.999908 
	C462.127228,460.000153 437.299408,460.021576 412.471649,459.994019 
	C386.647858,459.965363 360.824158,459.889221 335.000397,459.833832 
	C348.690460,444.331238 360.303467,427.448059 369.601105,408.320312 
	C409.630585,407.998077 449.085236,407.980804 488.539825,408.013916 
	C497.884216,408.021759 506.681580,406.957672 511.969208,397.750031 
	C512.018433,397.664307 512.643677,397.909363 513.000000,398.000000 
	C513.000000,436.287079 513.000000,474.574188 513.000000,513.000000 
	C430.645813,513.000000 348.291565,513.000000 265.468658,513.000000 
z"/>
<path fill="#3B97D3" opacity="1.000000" stroke="none" 
	d="
M123.916901,300.925873 
	C124.203331,302.705811 124.792946,304.496338 124.731354,306.264160 
	C123.538017,340.513977 129.407669,373.388000 143.669678,404.658844 
	C144.006851,405.398163 144.068939,406.262939 143.793091,407.520508 
	C104.044144,407.980957 64.761391,407.971588 25.478695,408.012787 
	C16.130268,408.022583 7.339754,406.934021 2.031346,397.754547 
	C1.980630,397.666901 1.356454,397.910858 1.000000,398.000000 
	C1.000000,368.979095 1.000000,339.958221 1.252068,310.791565 
	C2.025868,310.236389 2.733992,309.934326 3.041063,309.401215 
	C6.956606,302.603638 13.038751,300.879333 20.504972,300.915497 
	C54.974819,301.082489 89.446114,300.950623 123.916901,300.925873 
M63.383682,336.245422 
	C61.271763,336.653534 59.100296,336.869812 57.058430,337.503601 
	C49.002773,340.004059 43.673302,348.961243 45.293148,357.063141 
	C47.052868,365.864594 55.527428,372.597443 63.924969,371.865784 
	C72.880867,371.085419 79.986565,363.535583 80.100868,354.678772 
	C80.230682,344.620178 75.291382,338.935730 63.383682,336.245422 
z"/>
<path fill="#3B97D2" opacity="1.000000" stroke="none" 
	d="
M513.000000,397.531342 
	C512.643677,397.909363 512.018433,397.664307 511.969208,397.750031 
	C506.681580,406.957672 497.884216,408.021759 488.539825,408.013916 
	C449.085236,407.980804 409.630585,407.998077 369.733032,407.963013 
	C372.692108,398.829102 376.094177,389.729095 380.103333,380.485809 
	C381.856659,380.511719 383.002777,380.827423 384.149200,380.828583 
	C411.600433,380.856476 439.051697,380.864166 466.502869,380.817108 
	C468.137360,380.814331 469.823364,380.498810 471.395050,380.027496 
	C475.825287,378.699036 477.898041,375.453461 477.638245,370.996307 
	C477.385223,366.655548 473.849213,363.433929 469.398132,363.046448 
	C467.746002,362.902649 466.072968,362.992035 464.409424,362.987701 
	C437.792816,362.918304 411.176208,362.850952 384.559601,362.783173 
	C385.500153,357.088837 386.440735,351.394501 388.039795,345.382477 
	C414.822815,345.073273 440.947388,345.051147 467.071716,345.123138 
	C471.002319,345.133972 474.373657,344.287994 476.460724,340.700897 
	C479.975006,334.660828 475.625244,327.909729 468.036530,327.888702 
	C441.745819,327.815918 415.454773,327.865967 389.163818,327.869232 
	C389.344391,319.138519 389.524963,310.407806 390.356293,301.331970 
	C426.116333,300.990936 461.225647,301.020844 496.334839,300.973877 
	C502.216248,300.966003 506.644897,303.364441 510.071014,308.046783 
	C510.721741,308.936096 512.007324,309.360870 513.000000,310.000000 
	C513.000000,339.020905 513.000000,368.041779 513.000000,397.531342 
z"/>
<path fill="#000000" opacity="1.000000" stroke="none" 
	d="
M1.000000,398.468658 
	C1.356454,397.910858 1.980630,397.666901 2.031346,397.754547 
	C7.339754,406.934021 16.130268,408.022583 25.478695,408.012787 
	C64.761391,407.971588 104.044144,407.980957 143.820312,407.904907 
	C153.555695,426.465088 164.540390,443.924377 178.409546,459.601440 
	C124.908379,459.985870 71.745468,460.046844 18.582922,459.933929 
	C11.693718,459.919312 6.609802,462.448578 2.876896,468.109131 
	C2.550817,468.603607 1.639490,468.712189 0.999999,469.000000 
	C1.000000,445.645782 1.000000,422.291534 1.000000,398.468658 
z"/>
<path fill="#F0C419" opacity="1.000000" stroke="none" 
	d="
M0.999999,469.467590 
	C1.639490,468.712189 2.550817,468.603607 2.876896,468.109131 
	C6.609802,462.448578 11.693718,459.919312 18.582922,459.933929 
	C71.745468,460.046844 124.908379,459.985870 178.535706,459.906067 
	C182.715256,463.306732 186.269943,466.973297 190.176483,470.215973 
	C200.345551,478.656891 210.669022,486.911865 220.617874,495.609283 
	C153.653702,495.984955 87.002533,495.977081 20.351387,496.021027 
	C12.863013,496.025940 7.123487,493.022217 2.906532,486.882660 
	C2.565507,486.386200 1.649053,486.284912 1.000000,486.000000 
	C1.000000,480.645081 1.000000,475.290131 0.999999,469.467590 
z"/>
<path fill="#000000" opacity="1.000000" stroke="none" 
	d="
M513.000000,309.531342 
	C512.007324,309.360870 510.721741,308.936096 510.071014,308.046783 
	C506.644897,303.364441 502.216248,300.966003 496.334839,300.973877 
	C461.225647,301.020844 426.116333,300.990936 390.545288,300.955811 
	C390.058411,286.617157 390.033386,272.309540 390.039307,257.541016 
	C423.875885,257.053497 457.685608,256.730255 491.484436,257.196106 
	C500.633179,257.322205 507.536102,255.017120 512.748047,247.676239 
	C513.000000,268.354218 513.000000,288.708466 513.000000,309.531342 
z"/>
<path fill="#000000" opacity="1.000000" stroke="none" 
	d="
M123.953598,300.462463 
	C89.446114,300.950623 54.974819,301.082489 20.504972,300.915497 
	C13.038751,300.879333 6.956606,302.603638 3.041063,309.401215 
	C2.733992,309.934326 2.025868,310.236389 1.252068,310.322937 
	C1.000000,289.645782 1.000000,269.291534 1.000000,248.468658 
	C1.719387,248.439285 2.638615,248.721603 3.126505,249.342728 
	C6.975748,254.243195 11.444707,257.158020 18.191412,257.112305 
	C53.126644,256.875427 88.064384,257.008514 123.465485,257.046417 
	C123.949921,271.386475 123.970108,285.692780 123.953598,300.462463 
z"/>
<path fill="#000000" opacity="1.000000" stroke="none" 
	d="
M1.000000,486.468658 
	C1.649053,486.284912 2.565507,486.386200 2.906532,486.882660 
	C7.123487,493.022217 12.863013,496.025940 20.351387,496.021027 
	C87.002533,495.977081 153.653702,495.984955 220.790543,495.905121 
	C229.389328,500.523315 237.506912,505.206207 245.611206,509.912048 
	C246.988068,510.711487 248.307831,511.609314 249.326996,512.730835 
	C166.333313,513.000000 83.666641,513.000000 1.000000,513.000000 
	C1.000000,504.243011 1.000000,495.590179 1.000000,486.468658 
z"/>
<path fill="#000000" opacity="1.000000" stroke="none" 
	d="
M513.000000,9.508950 
	C512.017456,9.202290 511.002045,8.441444 510.059021,7.599498 
	C507.805511,5.587544 505.586090,3.537380 503.676453,1.251315 
	C506.917358,1.000000 509.834717,1.000000 513.000000,1.000000 
	C513.000000,3.670005 513.000000,6.343954 513.000000,9.508950 
z"/>
<path fill="#000000" opacity="1.000000" stroke="none" 
	d="
M9.508951,1.000000 
	C9.201593,1.983050 8.439958,2.998930 7.597443,3.942600 
	C5.586801,6.194646 3.538005,8.412630 1.252309,10.322186 
	C1.000000,7.082645 1.000000,4.165290 1.000000,1.000000 
	C3.670005,1.000000 6.343954,1.000000 9.508951,1.000000 
z"/>
<path fill="#285882" opacity="1.000000" stroke="none" 
	d="
M443.000000,45.052727 
	C425.539642,45.052174 408.579224,45.069626 391.618896,45.042477 
	C384.299561,45.030758 380.914307,42.218655 380.881042,36.264137 
	C380.849487,30.617258 384.647797,27.231369 391.655487,27.207880 
	C416.596893,27.124281 441.538818,27.164062 466.480469,27.203142 
	C467.954163,27.205450 469.468292,27.463333 470.892914,27.857677 
	C475.339600,29.088541 478.179840,32.986488 477.700378,37.005909 
	C477.161346,41.524918 473.734222,44.874222 468.939362,44.973751 
	C460.462677,45.149685 451.980103,45.041763 443.000000,45.052727 
z"/>
<path fill="#285680" opacity="1.000000" stroke="none" 
	d="
M423.000000,62.931442 
	C438.497223,62.936722 453.494446,62.926144 468.491608,62.957550 
	C472.794922,62.966560 475.788940,64.959938 477.184967,69.114525 
	C478.477051,72.959633 477.127502,76.165810 474.084747,78.344002 
	C472.472168,79.498390 470.104706,80.086121 468.074341,80.095085 
	C442.246277,80.209129 416.417480,80.202759 390.588989,80.150597 
	C384.139008,80.137573 380.784790,76.962830 380.892670,71.356834 
	C380.995209,66.029297 384.354431,62.998596 390.505981,62.956905 
	C401.170227,62.884640 411.835297,62.933491 423.000000,62.931442 
z"/>
<path fill="#64DCB9" opacity="1.000000" stroke="none" 
	d="
M120.254929,65.681488 
	C111.966377,53.747631 116.361610,40.181091 129.239243,36.921062 
	C138.755478,34.511986 148.261322,40.266190 150.673798,49.896107 
	C152.862610,58.633224 147.039261,68.497620 138.215317,70.947845 
	C131.311798,72.864799 125.470680,70.933708 120.254929,65.681488 
z"/>
<path fill="#64DCB9" opacity="1.000000" stroke="none" 
	d="
M64.577911,36.228271 
	C75.604614,39.366825 80.192924,44.863449 80.105568,54.411407 
	C80.020851,63.670937 73.232468,70.810112 63.605797,71.763832 
	C55.584812,72.558472 47.127415,65.797592 45.326927,57.151611 
	C43.653778,49.117130 48.896763,39.929604 56.856567,37.355152 
	C59.181679,36.603134 61.730762,36.543583 64.577911,36.228271 
z"/>
<path fill="#64DCB9" opacity="1.000000" stroke="none" 
	d="
M221.385483,57.189671 
	C219.737930,66.083794 211.315994,71.761826 203.647736,71.722488 
	C195.814026,71.682304 188.841705,65.632225 186.919144,57.762131 
	C184.840240,49.251999 190.004211,40.124382 198.506012,37.281673 
	C207.122635,34.400570 216.748123,38.408829 219.928391,46.701054 
	C221.121643,49.812328 221.016190,53.421700 221.385483,57.189671 
z"/>
<path fill="#285882" opacity="1.000000" stroke="none" 
	d="
M360.652313,30.397467 
	C365.083374,38.841721 361.529602,44.924465 352.464844,45.033672 
	C346.993195,45.099594 341.516113,45.144547 336.048462,44.974197 
	C331.708557,44.838989 328.896179,42.479721 328.049805,38.181061 
	C327.226257,33.998322 328.399750,29.699787 332.472931,28.703306 
	C341.767426,26.429445 351.324677,25.133614 360.652313,30.397467 
z"/>
<path fill="#285781" opacity="1.000000" stroke="none" 
	d="
M345.986877,62.929520 
	C349.309448,62.948120 352.154175,62.807278 354.971741,63.022388 
	C359.354065,63.356964 363.037537,67.553925 362.908203,71.785446 
	C362.773499,76.192833 359.597839,79.865036 355.121704,80.037827 
	C348.633636,80.288284 342.120331,80.308434 335.633850,80.039635 
	C330.731079,79.836464 327.821625,76.266975 327.906311,71.378387 
	C327.989502,66.579453 331.054688,63.294796 336.000824,62.998016 
	C339.156189,62.808685 342.330841,62.941334 345.986877,62.929520 
z"/>
<path fill="#285680" opacity="1.000000" stroke="none" 
	d="
M427.000000,195.068726 
	C414.194214,195.062378 401.886200,195.193817 389.583435,194.997574 
	C382.243958,194.880508 378.094543,187.301239 382.374695,181.633759 
	C383.831818,179.704269 386.995941,178.029282 389.397125,178.006134 
	C415.835480,177.751312 442.277283,177.805954 468.717865,177.879547 
	C473.884521,177.893921 477.795868,181.889862 477.711853,186.565125 
	C477.627014,191.283356 473.776184,194.976395 468.408295,195.019547 
	C454.772919,195.129181 441.136200,195.063889 427.000000,195.068726 
z"/>
<path fill="#285882" opacity="1.000000" stroke="none" 
	d="
M471.918274,213.517914 
	C476.316772,215.712585 478.359436,218.964386 477.483826,223.428238 
	C476.549805,228.189743 472.969940,230.587158 468.467407,230.640076 
	C451.154938,230.843552 433.835205,230.927429 416.525818,230.622345 
	C410.339661,230.513306 406.689270,226.254486 407.083618,221.193115 
	C407.475525,216.163223 411.496704,212.935394 417.624847,212.966614 
	C435.595673,213.058121 453.566132,213.222748 471.918274,213.517914 
z"/>
<path fill="#64DCB9" opacity="1.000000" stroke="none" 
	d="
M56.030514,187.820068 
	C64.833824,183.254868 76.593292,189.446182 79.483887,198.223572 
	C82.532997,207.482285 77.961006,217.046341 68.737160,220.592117 
	C60.555523,223.737259 51.466988,220.194458 47.142250,212.174194 
	C43.095387,204.669250 45.324203,194.795227 52.213398,189.914246 
	C53.288170,189.152771 54.511131,188.600433 56.030514,187.820068 
z"/>
<path fill="#285781" opacity="1.000000" stroke="none" 
	d="
M334.686401,177.992188 
	C341.255341,177.898102 347.394440,177.772964 353.530548,177.860046 
	C359.285980,177.941742 362.996735,181.488770 362.915192,186.550323 
	C362.838715,191.297470 358.704865,194.971909 353.198395,195.048508 
	C348.055969,195.120087 342.911377,195.108612 337.768555,195.054749 
	C332.162201,194.996048 328.933075,192.751389 328.056854,188.435532 
	C327.081757,183.632629 329.003784,180.413391 334.686401,177.992188 
z"/>
<path fill="#EBEFF0" opacity="1.000000" stroke="none" 
	d="
M328.976929,423.961670 
	C312.938141,446.099640 293.577515,464.045349 270.498718,478.148682 
	C261.145874,483.864166 252.914108,483.907074 243.535324,478.167999 
	C212.816818,459.370789 188.676514,434.409210 171.985764,402.552795 
	C160.758911,381.124969 153.372650,358.260284 152.111633,333.981201 
	C151.050293,313.546936 151.160950,293.043488 151.094788,272.569580 
	C151.065292,263.441742 157.455261,256.379852 166.693390,255.169434 
	C195.726059,251.365463 223.177994,242.644150 249.195389,229.306259 
	C254.320526,226.678848 259.332825,226.557938 264.506348,229.151154 
	C283.784149,238.814011 303.741577,246.663559 324.894806,251.153336 
	C332.045013,252.670944 339.272064,253.854019 346.494781,254.995300 
	C356.161835,256.522827 362.776978,262.950531 362.895081,272.240479 
	C363.128082,290.567993 363.801208,308.955231 362.690918,327.220428 
	C360.554993,362.356506 349.288239,394.622284 328.976929,423.961670 
M344.759247,330.092346 
	C344.897858,312.103271 344.993835,294.113647 345.219818,276.125671 
	C345.254822,273.339569 344.138031,272.384521 341.507935,272.039520 
	C313.026489,268.302765 286.059998,259.690674 260.356537,246.905472 
	C258.527069,245.995514 255.453369,246.010513 253.619431,246.923553 
	C227.920502,259.718170 200.966614,268.363403 172.471497,272.051727 
	C169.879303,272.387238 168.648422,273.289429 168.711349,276.108948 
	C169.153381,295.915283 167.924622,315.901459 170.150085,335.498505 
	C176.529907,391.678467 205.507980,433.814117 253.399994,463.328491 
	C256.008942,464.936340 257.974030,464.872314 260.621338,463.313751 
	C277.584656,453.326691 292.489502,440.918488 305.127686,425.844543 
	C328.168579,398.362915 341.174683,366.662903 344.759247,330.092346 
z"/>
<path fill="#F0C419" opacity="1.000000" stroke="none" 
	d="
M334.678528,459.951019 
	C360.824158,459.889221 386.647858,459.965363 412.471649,459.994019 
	C437.299408,460.021576 462.127228,460.000153 486.955017,459.999908 
	C498.900482,459.999786 506.256958,469.756378 504.149506,481.623352 
	C502.750397,489.501587 494.389771,496.079132 485.642609,496.062286 
	C421.657166,495.939087 357.671417,495.984955 293.199097,495.904297 
	C301.606750,488.722015 310.647186,481.785828 319.341125,474.439606 
	C324.622955,469.976532 329.369568,464.880127 334.678528,459.951019 
z"/>
<path fill="#295882" opacity="1.000000" stroke="none" 
	d="
M384.373901,363.095398 
	C411.176208,362.850952 437.792816,362.918304 464.409424,362.987701 
	C466.072968,362.992035 467.746002,362.902649 469.398132,363.046448 
	C473.849213,363.433929 477.385223,366.655548 477.638245,370.996307 
	C477.898041,375.453461 475.825287,378.699036 471.395050,380.027496 
	C469.823364,380.498810 468.137360,380.814331 466.502869,380.817108 
	C439.051697,380.864166 411.600433,380.856476 384.149200,380.828583 
	C383.002777,380.827423 381.856659,380.511719 380.317078,380.201202 
	C381.345215,374.509125 382.766693,368.958405 384.373901,363.095398 
z"/>
<path fill="#285680" opacity="1.000000" stroke="none" 
	d="
M389.098816,328.326416 
	C415.454773,327.865967 441.745819,327.815918 468.036530,327.888702 
	C475.625244,327.909729 479.975006,334.660828 476.460724,340.700897 
	C474.373657,344.287994 471.002319,345.133972 467.071716,345.123138 
	C440.947388,345.051147 414.822815,345.073273 388.210052,345.041870 
	C388.159119,339.607208 388.596436,334.195404 389.098816,328.326416 
z"/>
<path fill="#64DCB9" opacity="1.000000" stroke="none" 
	d="
M63.778027,336.296387 
	C75.291382,338.935730 80.230682,344.620178 80.100868,354.678772 
	C79.986565,363.535583 72.880867,371.085419 63.924969,371.865784 
	C55.527428,372.597443 47.052868,365.864594 45.293148,357.063141 
	C43.673302,348.961243 49.002773,340.004059 57.058430,337.503601 
	C59.100296,336.869812 61.271763,336.653534 63.778027,336.296387 
z"/>
<path fill="#50BA6F" opacity="1.000000" stroke="none" 
	d="
M344.706543,330.551208 
	C341.174683,366.662903 328.168579,398.362915 305.127686,425.844543 
	C292.489502,440.918488 277.584656,453.326691 260.621338,463.313751 
	C257.974030,464.872314 256.008942,464.936340 253.399994,463.328491 
	C205.507980,433.814117 176.529907,391.678467 170.150085,335.498505 
	C167.924622,315.901459 169.153381,295.915283 168.711349,276.108948 
	C168.648422,273.289429 169.879303,272.387238 172.471497,272.051727 
	C200.966614,268.363403 227.920502,259.718170 253.619431,246.923553 
	C255.453369,246.010513 258.527069,245.995514 260.356537,246.905472 
	C286.059998,259.690674 313.026489,268.302765 341.507935,272.039520 
	C344.138031,272.384521 345.254822,273.339569 345.219818,276.125671 
	C344.993835,294.113647 344.897858,312.103271 344.706543,330.551208 
M229.848175,327.693909 
	C223.609863,329.408936 221.863663,331.497955 221.842117,337.861481 
	C221.785751,354.504822 221.782608,371.148621 221.840500,387.791931 
	C221.866089,395.146149 224.808212,398.099701 232.145142,398.126801 
	C248.621994,398.187683 265.099365,398.181702 281.576263,398.131470 
	C289.232269,398.108154 292.139404,395.206879 292.162994,387.563599 
	C292.213776,371.086700 292.212372,354.609344 292.161133,338.132446 
	C292.140015,331.343964 290.298950,329.206604 283.383850,326.657440 
	C283.353333,320.835388 283.463837,315.008514 283.264648,309.192230 
	C282.764801,294.598297 271.718170,283.804352 257.322479,283.681335 
	C242.634552,283.555756 231.281052,294.318726 230.742416,309.047455 
	C230.517593,315.195221 230.611176,321.354584 229.848175,327.693909 
z"/>
<path fill="#F3D55B" opacity="1.000000" stroke="none" 
	d="
M283.441345,327.507874 
	C290.298950,329.206604 292.140015,331.343964 292.161133,338.132446 
	C292.212372,354.609344 292.213776,371.086700 292.162994,387.563599 
	C292.139404,395.206879 289.232269,398.108154 281.576263,398.131470 
	C265.099365,398.181702 248.621994,398.187683 232.145142,398.126801 
	C224.808212,398.099701 221.866089,395.146149 221.840500,387.791931 
	C221.782608,371.148621 221.785751,354.504822 221.842117,337.861481 
	C221.863663,331.497955 223.609863,329.408936 230.703674,327.692200 
	C237.075348,327.619904 242.591507,327.549316 248.563278,327.566711 
	C254.643265,327.596161 260.267639,327.537628 266.357941,327.569489 
	C272.363007,327.609253 277.902191,327.558563 283.441345,327.507874 
M265.819061,361.832184 
	C263.627258,355.605194 259.357605,352.866577 254.401031,354.508453 
	C250.301804,355.866364 247.579575,360.086121 248.186340,364.141876 
	C248.805206,368.278534 252.606415,371.669403 256.771118,371.799957 
	C261.597473,371.951233 264.906921,368.613586 265.819061,361.832184 
z"/>
<path fill="#D1D4CF" opacity="1.000000" stroke="none" 
	d="
M248.107697,327.478729 
	C242.591507,327.549316 237.075348,327.619904 231.059570,327.599609 
	C230.611176,321.354584 230.517593,315.195221 230.742416,309.047455 
	C231.281052,294.318726 242.634552,283.555756 257.322479,283.681335 
	C271.718170,283.804352 282.764801,294.598297 283.264648,309.192230 
	C283.463837,315.008514 283.353333,320.835388 283.412598,327.082642 
	C277.902191,327.558563 272.363007,327.609253 266.363373,327.146790 
	C265.908112,321.479279 265.996674,316.323303 265.896790,311.170990 
	C265.780823,305.188385 262.167328,301.163025 257.073761,301.114380 
	C251.987686,301.065826 248.225494,305.113068 248.107513,311.018585 
	C247.997971,316.503113 248.099243,321.991852 248.107697,327.478729 
z"/>
<path fill="#55BB71" opacity="1.000000" stroke="none" 
	d="
M248.563293,327.566711 
	C248.099243,321.991852 247.997971,316.503113 248.107513,311.018585 
	C248.225494,305.113068 251.987686,301.065826 257.073761,301.114380 
	C262.167328,301.163025 265.780823,305.188385 265.896790,311.170990 
	C265.996674,316.323303 265.908112,321.479279 265.897461,327.056335 
	C260.267639,327.537628 254.643265,327.596161 248.563293,327.566711 
z"/>
<path fill="#A86E44" opacity="1.000000" stroke="none" 
	d="
M265.849701,362.222687 
	C264.906921,368.613586 261.597473,371.951233 256.771118,371.799957 
	C252.606415,371.669403 248.805206,368.278534 248.186340,364.141876 
	C247.579575,360.086121 250.301804,355.866364 254.401031,354.508453 
	C259.357605,352.866577 263.627258,355.605194 265.849701,362.222687 
z"/>
</svg>